<svg xmlns="http://www.w3.org/2000/svg" width="1048" height="1076" fill="none" class="Hero_stars__DBloh"><g style="mix-blend-mode:overlay"><g filter="url(#stars_svg__a)"><path fill="#fff" d="m524 256 3.263 304.137L653.41 266.904 533.567 561.218 774 298.872 539.219 563.306l338.334-213.58L543.834 566.26 957.013 416 547.097 569.877l459.863-76.699-458.174 80.734L1024 576l-475.214 2.088 458.174 80.734-459.863-76.699L957.013 736 543.834 585.74l333.719 216.534-338.334-213.58L774 853.128 533.567 590.782 653.41 885.096 527.263 591.863 524 896l-3.263-304.137L394.59 885.096l119.843-294.314L274 853.128l234.781-264.434-338.334 213.58L504.166 585.74 90.987 736l409.916-153.877-459.866 76.699 458.177-80.734L24 576l475.214-2.088-458.177-80.734 459.866 76.699L90.987 416l413.179 150.26-333.719-216.534 338.334 213.58L274 298.872l240.433 262.346L394.59 266.904l126.147 293.233L524 256Z"></path></g><g filter="url(#stars_svg__b)"><path stroke="url(#stars_svg__c)" stroke-linecap="round" stroke-width="3" d="m652.842 453.212 28.455-33.054"></path></g><g filter="url(#stars_svg__d)"><path stroke="url(#stars_svg__e)" stroke-linecap="round" stroke-width="3" d="m647.283 515.501 71.831-54.784"></path></g><g filter="url(#stars_svg__f)"><path stroke="url(#stars_svg__g)" stroke-linecap="round" stroke-width="3" d="m401.519 510.06-73.183-52.965"></path></g><g filter="url(#stars_svg__h)"><path stroke="url(#stars_svg__i)" stroke-linecap="round" stroke-width="3" d="m484.752 489.931-25.916-35.08"></path></g><g filter="url(#stars_svg__j)"><path stroke="url(#stars_svg__k)" stroke-linecap="round" stroke-width="3" d="m384.199 434.55-30.24-31.429"></path></g><g filter="url(#stars_svg__l)"><path stroke="url(#stars_svg__m)" stroke-linecap="round" stroke-width="3" d="m568.275 487.245 18.45-39.52"></path></g><g filter="url(#stars_svg__n)"><path stroke="url(#stars_svg__o)" stroke-linecap="round" stroke-width="3" d="m526.675 519.201 1.088-33.001"></path></g></g><defs><filter id="stars_svg__a" width="1048" height="688" x="0" y="232" color-interpolation-filters="sRGB" filterUnits="userSpaceOnUse"><feFlood flood-opacity="0" result="BackgroundImageFix"></feFlood><feBlend in="SourceGraphic" in2="BackgroundImageFix" result="shape"></feBlend><feGaussianBlur result="effect1_foregroundBlur_440:32428" stdDeviation="12"></feGaussianBlur></filter><filter id="stars_svg__b" width="35.455" height="40.054" x="649.342" y="416.658" color-interpolation-filters="sRGB" filterUnits="userSpaceOnUse"><feFlood flood-opacity="0" result="BackgroundImageFix"></feFlood><feBlend in="SourceGraphic" in2="BackgroundImageFix" result="shape"></feBlend><feGaussianBlur result="effect1_foregroundBlur_440:32428" stdDeviation="1"></feGaussianBlur></filter><filter id="stars_svg__d" width="78.831" height="61.784" x="643.783" y="457.217" color-interpolation-filters="sRGB" filterUnits="userSpaceOnUse"><feFlood flood-opacity="0" result="BackgroundImageFix"></feFlood><feBlend in="SourceGraphic" in2="BackgroundImageFix" result="shape"></feBlend><feGaussianBlur result="effect1_foregroundBlur_440:32428" stdDeviation="1"></feGaussianBlur></filter><filter id="stars_svg__f" width="80.183" height="59.966" x="324.836" y="453.595" color-interpolation-filters="sRGB" filterUnits="userSpaceOnUse"><feFlood flood-opacity="0" result="BackgroundImageFix"></feFlood><feBlend in="SourceGraphic" in2="BackgroundImageFix" result="shape"></feBlend><feGaussianBlur result="effect1_foregroundBlur_440:32428" stdDeviation="1"></feGaussianBlur></filter><filter id="stars_svg__h" width="32.916" height="42.08" x="455.336" y="451.352" color-interpolation-filters="sRGB" filterUnits="userSpaceOnUse"><feFlood flood-opacity="0" result="BackgroundImageFix"></feFlood><feBlend in="SourceGraphic" in2="BackgroundImageFix" result="shape"></feBlend><feGaussianBlur result="effect1_foregroundBlur_440:32428" stdDeviation="1"></feGaussianBlur></filter><filter id="stars_svg__j" width="37.24" height="38.429" x="350.459" y="399.621" color-interpolation-filters="sRGB" filterUnits="userSpaceOnUse"><feFlood flood-opacity="0" result="BackgroundImageFix"></feFlood><feBlend in="SourceGraphic" in2="BackgroundImageFix" result="shape"></feBlend><feGaussianBlur result="effect1_foregroundBlur_440:32428" stdDeviation="1"></feGaussianBlur></filter><filter id="stars_svg__l" width="25.45" height="46.522" x="564.775" y="444.224" color-interpolation-filters="sRGB" filterUnits="userSpaceOnUse"><feFlood flood-opacity="0" result="BackgroundImageFix"></feFlood><feBlend in="SourceGraphic" in2="BackgroundImageFix" result="shape"></feBlend><feGaussianBlur result="effect1_foregroundBlur_440:32428" stdDeviation="1"></feGaussianBlur></filter><filter id="stars_svg__n" width="8.088" height="40.002" x="523.175" y="482.7" color-interpolation-filters="sRGB" filterUnits="userSpaceOnUse"><feFlood flood-opacity="0" result="BackgroundImageFix"></feFlood><feBlend in="SourceGraphic" in2="BackgroundImageFix" result="shape"></feBlend><feGaussianBlur result="effect1_foregroundBlur_440:32428" stdDeviation="1"></feGaussianBlur></filter><linearGradient id="stars_svg__c" x1="682.035" x2="651.623" y1="418.348" y2="453.676" gradientUnits="userSpaceOnUse"><stop offset="0.071" stop-color="#fff" stop-opacity="0"></stop><stop offset="0.495" stop-color="#fff"></stop><stop offset="1" stop-color="#fff" stop-opacity="0"></stop></linearGradient><linearGradient id="stars_svg__e" x1="720.492" x2="646.276" y1="458.884" y2="515.488" gradientUnits="userSpaceOnUse"><stop stop-color="#fff" stop-opacity="0"></stop><stop offset="0.495" stop-color="#fff"></stop><stop offset="1" stop-color="#fff" stop-opacity="0"></stop></linearGradient><linearGradient id="stars_svg__g" x1="326.184" x2="401.797" y1="456.304" y2="511.028" gradientUnits="userSpaceOnUse"><stop stop-color="#fff" stop-opacity="0"></stop><stop offset="0.495" stop-color="#fff"></stop><stop offset="1" stop-color="#fff" stop-opacity="0"></stop></linearGradient><linearGradient id="stars_svg__i" x1="457.235" x2="484.934" y1="453.73" y2="491.223" gradientUnits="userSpaceOnUse"><stop stop-color="#fff" stop-opacity="0"></stop><stop offset="0.495" stop-color="#fff"></stop><stop offset="1" stop-color="#fff" stop-opacity="0"></stop></linearGradient><linearGradient id="stars_svg__k" x1="352.227" x2="384.547" y1="402.216" y2="435.807" gradientUnits="userSpaceOnUse"><stop offset="0.071" stop-color="#fff" stop-opacity="0"></stop><stop offset="0.495" stop-color="#fff"></stop><stop offset="1" stop-color="#fff" stop-opacity="0"></stop></linearGradient><linearGradient id="stars_svg__m" x1="586.946" x2="567.227" y1="445.783" y2="488.021" gradientUnits="userSpaceOnUse"><stop stop-color="#fff" stop-opacity="0"></stop><stop offset="0.495" stop-color="#fff"></stop><stop offset="1" stop-color="#fff" stop-opacity="0"></stop></linearGradient><linearGradient id="stars_svg__o" x1="527.2" x2="526.014" y1="484.407" y2="520.407" gradientUnits="userSpaceOnUse"><stop stop-color="#fff" stop-opacity="0"></stop><stop offset="0.495" stop-color="#fff"></stop><stop offset="1" stop-color="#fff" stop-opacity="0"></stop></linearGradient></defs></svg>