<svg width="1727" height="454" viewBox="0 0 1727 454" fill="none" xmlns="http://www.w3.org/2000/svg">
<g id="layered-steps-haikei (1)">
<rect id="Rectangle" x="0.000488281" width="1727" height="451" fill="black"/>
<path id="Shape" d="M0.000488281 121.712H172.701V89.0548H345.401V67.2837H518.101V132.597H690.801V110.826H863.501V227.846H1036.2V151.647H1208.9V274.11H1381.6V238.731H1554.3V271.388H1727V118.99V453.722V453.722H1554.3V453.722H1381.6V453.722H1208.9V453.722H1036.2V453.722H863.501V453.722H690.801V453.722H518.101V453.722H345.401V453.722H172.701V453.722H0.000488281V121.712Z" fill="#942800"/>
<path id="Shape_2" d="M0.000488281 263.224H172.701V219.682H345.401V132.597H518.101V284.995H690.801V230.567H863.501V304.045H1036.2V192.468H1208.9V222.403H1381.6V249.617H1554.3V140.761H1727V236.01V453.722V453.722H1554.3V453.722H1381.6V453.722H1208.9V453.722H1036.2V453.722H863.501V453.722H690.801V453.722H518.101V453.722H345.401V453.722H172.701V453.722H0.000488281V263.224Z" fill="#B44800"/>
<path id="Shape_3" d="M0.000488281 274.109H172.701V244.174H345.401V222.403H518.101V320.373H690.801V208.796H863.501V260.502H1036.2V312.209H1208.9V295.88H1381.6V358.473H1554.3V325.816H1727V208.796V453.721V453.721H1554.3V453.721H1381.6V453.721H1208.9V453.721H1036.2V453.721H863.501V453.721H690.801V453.721H518.101V453.721H345.401V453.721H172.701V453.721H0.000488281V274.109Z" fill="#D26800"/>
<path id="Shape_4" d="M0.000488281 355.751H172.701V391.129H345.401V358.473H518.101V372.08H690.801V366.637H863.501V350.308H1036.2V391.129H1208.9V358.473H1381.6V339.423H1554.3V388.408H1727V293.159V453.721V453.721H1554.3V453.721H1381.6V453.721H1208.9V453.721H1036.2V453.721H863.501V453.721H690.801V453.721H518.101V453.721H345.401V453.721H172.701V453.721H0.000488281V355.751Z" fill="#EE8900"/>
</g>
</svg>
