<svg width="1729" height="288" viewBox="0 0 1729 288" fill="none" xmlns="http://www.w3.org/2000/svg">
<g id="MacBook Pro 16&#34;">
<path id="Rectangle Union" fill-rule="evenodd" clip-rule="evenodd" d="M95.9602 0H1.96045V94H1.96021V188H95.96H189.96H189.96V282H283.96V188H283.959V94H345.959H353.959H439.959V0H353.959H345.959H267.96H259.96H173.96V94H95.9602V0ZM377.96 188H283.96V282H377.96V188ZM753.961 282H659.96H565.961V188H472.96V94H517.959V0H603.959H611.959H689.958H697.958H775.958H783.958H869.958V94H783.958H775.958H754.959V188H847.96V282H753.961ZM1130.96 188H1036.96V282H1130.96V188H1224.96H1318.96H1319.96V282H1407.96H1413.96H1501.96V188H1413.96H1412.96V94H1463.96H1471.96H1506.96V188H1600.96H1601.96V282H1695.96V188H1694.96V94H1729.96V0H1643.96H1635.96H1557.96H1549.96H1471.96H1463.96H1377.96V94H1318.96H1299.96V0H1213.96H1205.96H1127.96H1119.96H1041.96H1033.96H947.958V94H1033.96H1041.96H1119.96H1127.96H1130.96V188Z" fill="#F88700"/>
</g>
</svg>
