<?xml version="1.0" encoding="utf-8"?>
<svg width="1728px" height="1117px" viewBox="0 0 1728 1117" version="1.1" xmlns:xlink="http://www.w3.org/1999/xlink" xmlns="http://www.w3.org/2000/svg">
  <defs>
    <path d="M0 0L1728 0L1728 1117L0 1117L0 0Z" id="path_1" />
    <clipPath id="clip_1">
      <use xlink:href="#path_1" clip-rule="evenodd" fill-rule="evenodd" />
    </clipPath>
  </defs>
  <g id="Group-31-Copy-Mask">
    <path d="M0 0L1728 0L1728 1117L0 1117L0 0Z" id="Mask" fill="url(#gradient_1)" fill-rule="evenodd" stroke="none" />
    <g clip-path="url(#clip_1)">
      <g id="Group-31-Copy" transform="translate(-17 -35)">
        <g id="Group">
          <path d="M285.953 22.5753C285.953 10.1073 296.06 0 308.528 0C320.996 0 331.104 10.1073 331.104 22.5753C331.104 35.0432 320.996 45.1505 308.528 45.1505C296.06 45.1505 285.953 35.0432 285.953 22.5753Z" id="Oval" fill="#FFA200" fill-rule="evenodd" stroke="none" />
          <path d="M381.271 22.5753C381.271 10.1073 391.378 0 403.846 0C416.314 0 426.422 10.1073 426.422 22.5753C426.422 35.0432 416.314 45.1505 403.846 45.1505C391.378 45.1505 381.271 35.0432 381.271 22.5753Z" id="Oval-Copy" fill="#FFA200" fill-rule="evenodd" stroke="none" />
          <path d="M476.589 22.5753C476.589 10.1073 486.696 0 499.164 0C511.632 0 521.739 10.1073 521.739 22.5753C521.739 35.0432 511.632 45.1505 499.164 45.1505C486.696 45.1505 476.589 35.0432 476.589 22.5753Z" id="Oval-Copy-2" fill="#FFA200" fill-rule="evenodd" stroke="none" />
          <path d="M571.906 22.5753C571.906 10.1073 582.014 0 594.482 0C606.949 0 617.057 10.1073 617.057 22.5753C617.057 35.0432 606.949 45.1505 594.482 45.1505C582.014 45.1505 571.906 35.0432 571.906 22.5753Z" id="Oval-Copy-3" fill="#FFA200" fill-rule="evenodd" stroke="none" />
          <path d="M667.224 22.5753C667.224 10.1073 677.331 0 689.799 0C702.267 0 712.375 10.1073 712.375 22.5753C712.375 35.0432 702.267 45.1505 689.799 45.1505C677.331 45.1505 667.224 35.0432 667.224 22.5753Z" id="Oval-Copy-4" fill="#FFA200" fill-rule="evenodd" stroke="none" />
          <path d="M762.542 22.5753C762.542 10.1073 772.649 0 785.117 0C797.585 0 807.692 10.1073 807.692 22.5753C807.692 35.0432 797.585 45.1505 785.117 45.1505C772.649 45.1505 762.542 35.0432 762.542 22.5753Z" id="Oval-Copy-5" fill="#FFA200" fill-rule="evenodd" stroke="none" />
          <path d="M857.859 22.5753C857.859 10.1073 867.967 0 880.435 0C892.903 0 903.01 10.1073 903.01 22.5753C903.01 35.0432 892.903 45.1505 880.435 45.1505C867.967 45.1505 857.859 35.0432 857.859 22.5753Z" id="Oval-Copy-6" fill="#FFA200" fill-rule="evenodd" stroke="none" />
          <path d="M953.177 22.5753C953.177 10.1073 963.285 0 975.753 0C988.22 0 998.328 10.1073 998.328 22.5753C998.328 35.0432 988.22 45.1505 975.753 45.1505C963.285 45.1505 953.177 35.0432 953.177 22.5753Z" id="Oval-Copy-7" fill="#FFA200" fill-rule="evenodd" stroke="none" />
          <path d="M1048.5 22.5753C1048.5 10.1073 1058.6 0 1071.07 0C1083.54 0 1093.65 10.1073 1093.65 22.5753C1093.65 35.0432 1083.54 45.1505 1071.07 45.1505C1058.6 45.1505 1048.5 35.0432 1048.5 22.5753Z" id="Oval-Copy-8" fill="#FFA200" fill-rule="evenodd" stroke="none" />
          <path d="M1143.81 22.5753C1143.81 10.1073 1153.92 0 1166.39 0C1178.86 0 1188.96 10.1073 1188.96 22.5753C1188.96 35.0432 1178.86 45.1505 1166.39 45.1505C1153.92 45.1505 1143.81 35.0432 1143.81 22.5753Z" id="Oval-Copy-9" fill="#FFA200" fill-rule="evenodd" stroke="none" />
          <path d="M1239.13 22.5753C1239.13 10.1073 1249.24 0 1261.71 0C1274.17 0 1284.28 10.1073 1284.28 22.5753C1284.28 35.0432 1274.17 45.1505 1261.71 45.1505C1249.24 45.1505 1239.13 35.0432 1239.13 22.5753Z" id="Oval-Copy-10" fill="#FFA200" fill-rule="evenodd" stroke="none" />
          <path d="M1334.45 22.5753C1334.45 10.1073 1344.56 0 1357.02 0C1369.49 0 1379.6 10.1073 1379.6 22.5753C1379.6 35.0432 1369.49 45.1505 1357.02 45.1505C1344.56 45.1505 1334.45 35.0432 1334.45 22.5753Z" id="Oval-Copy-11" fill="#FFA200" fill-rule="evenodd" stroke="none" />
          <path d="M1429.77 22.5753C1429.77 10.1073 1439.87 0 1452.34 0C1464.81 0 1474.92 10.1073 1474.92 22.5753C1474.92 35.0432 1464.81 45.1505 1452.34 45.1505C1439.87 45.1505 1429.77 35.0432 1429.77 22.5753Z" id="Oval-Copy-12" fill="#FFA200" fill-rule="evenodd" stroke="none" />
          <path d="M1525.08 22.5753C1525.08 10.1073 1535.19 0 1547.66 0C1560.13 0 1570.23 10.1073 1570.23 22.5753C1570.23 35.0432 1560.13 45.1505 1547.66 45.1505C1535.19 45.1505 1525.08 35.0432 1525.08 22.5753Z" id="Oval-Copy-13" fill="#FFA200" fill-rule="evenodd" stroke="none" />
          <path d="M1620.4 22.5753C1620.4 10.1073 1630.51 0 1642.98 0C1655.44 0 1665.55 10.1073 1665.55 22.5753C1665.55 35.0432 1655.44 45.1505 1642.98 45.1505C1630.51 45.1505 1620.4 35.0432 1620.4 22.5753Z" id="Oval-Copy-14" fill="#FFA200" fill-rule="evenodd" stroke="none" />
          <path d="M1715.72 22.5753C1715.72 10.1073 1725.83 0 1738.29 0C1750.76 0 1760.87 10.1073 1760.87 22.5753C1760.87 35.0432 1750.76 45.1505 1738.29 45.1505C1725.83 45.1505 1715.72 35.0432 1715.72 22.5753Z" id="Oval-Copy-15" fill="#FFA200" fill-rule="evenodd" stroke="none" />
          <path d="M190.635 22.5753C190.635 10.1073 200.743 0 213.211 0C225.679 0 235.786 10.1073 235.786 22.5753C235.786 35.0432 225.679 45.1505 213.211 45.1505C200.743 45.1505 190.635 35.0432 190.635 22.5753Z" id="Oval-Copy-32" fill="#FFA200" fill-rule="evenodd" stroke="none" />
          <path d="M0 22.5753C0 10.1073 10.1073 0 22.5753 0C35.0432 0 45.1505 10.1073 45.1505 22.5753C45.1505 35.0432 35.0432 45.1505 22.5753 45.1505C10.1073 45.1505 0 35.0432 0 22.5753Z" id="Oval-Copy-30" fill="#FFA200" fill-rule="evenodd" stroke="none" />
          <path d="M95.3176 22.5753C95.3176 10.1073 105.425 0 117.893 0C130.361 0 140.468 10.1073 140.468 22.5753C140.468 35.0432 130.361 45.1505 117.893 45.1505C105.425 45.1505 95.3176 35.0432 95.3176 22.5753Z" id="Oval-Copy-31" fill="#FFA200" fill-rule="evenodd" stroke="none" />
        </g>
        <g id="Group-Copy" transform="translate(0 95.31775)">
          <path d="M285.953 22.5753C285.953 10.1073 296.06 0 308.528 0C320.996 0 331.104 10.1073 331.104 22.5753C331.104 35.0432 320.996 45.1505 308.528 45.1505C296.06 45.1505 285.953 35.0432 285.953 22.5753Z" id="Oval" fill="#FFA200" fill-rule="evenodd" stroke="none" />
          <path d="M381.271 22.5753C381.271 10.1073 391.378 0 403.846 0C416.314 0 426.422 10.1073 426.422 22.5753C426.422 35.0432 416.314 45.1505 403.846 45.1505C391.378 45.1505 381.271 35.0432 381.271 22.5753Z" id="Oval-Copy" fill="#FFA200" fill-rule="evenodd" stroke="none" />
          <path d="M476.589 22.5753C476.589 10.1073 486.696 0 499.164 0C511.632 0 521.739 10.1073 521.739 22.5753C521.739 35.0432 511.632 45.1505 499.164 45.1505C486.696 45.1505 476.589 35.0432 476.589 22.5753Z" id="Oval-Copy-2" fill="#FFA200" fill-rule="evenodd" stroke="none" />
          <path d="M571.906 22.5753C571.906 10.1073 582.014 0 594.482 0C606.949 0 617.057 10.1073 617.057 22.5753C617.057 35.0432 606.949 45.1505 594.482 45.1505C582.014 45.1505 571.906 35.0432 571.906 22.5753Z" id="Oval-Copy-3" fill="#FFA200" fill-rule="evenodd" stroke="none" />
          <path d="M667.224 22.5753C667.224 10.1073 677.331 0 689.799 0C702.267 0 712.375 10.1073 712.375 22.5753C712.375 35.0432 702.267 45.1505 689.799 45.1505C677.331 45.1505 667.224 35.0432 667.224 22.5753Z" id="Oval-Copy-4" fill="#FFA200" fill-rule="evenodd" stroke="none" />
          <path d="M762.542 22.5753C762.542 10.1073 772.649 0 785.117 0C797.585 0 807.692 10.1073 807.692 22.5753C807.692 35.0432 797.585 45.1505 785.117 45.1505C772.649 45.1505 762.542 35.0432 762.542 22.5753Z" id="Oval-Copy-5" fill="#FFA200" fill-rule="evenodd" stroke="none" />
          <path d="M857.859 22.5753C857.859 10.1073 867.967 0 880.435 0C892.903 0 903.01 10.1073 903.01 22.5753C903.01 35.0432 892.903 45.1505 880.435 45.1505C867.967 45.1505 857.859 35.0432 857.859 22.5753Z" id="Oval-Copy-6" fill="#FFA200" fill-rule="evenodd" stroke="none" />
          <path d="M953.177 22.5753C953.177 10.1073 963.285 0 975.753 0C988.22 0 998.328 10.1073 998.328 22.5753C998.328 35.0432 988.22 45.1505 975.753 45.1505C963.285 45.1505 953.177 35.0432 953.177 22.5753Z" id="Oval-Copy-7" fill="#FFA200" fill-rule="evenodd" stroke="none" />
          <path d="M1048.5 22.5753C1048.5 10.1073 1058.6 0 1071.07 0C1083.54 0 1093.65 10.1073 1093.65 22.5753C1093.65 35.0432 1083.54 45.1505 1071.07 45.1505C1058.6 45.1505 1048.5 35.0432 1048.5 22.5753Z" id="Oval-Copy-8" fill="#FFA200" fill-rule="evenodd" stroke="none" />
          <path d="M1143.81 22.5753C1143.81 10.1073 1153.92 0 1166.39 0C1178.86 0 1188.96 10.1073 1188.96 22.5753C1188.96 35.0432 1178.86 45.1505 1166.39 45.1505C1153.92 45.1505 1143.81 35.0432 1143.81 22.5753Z" id="Oval-Copy-9" fill="#FFA200" fill-rule="evenodd" stroke="none" />
          <path d="M1239.13 22.5753C1239.13 10.1073 1249.24 0 1261.71 0C1274.17 0 1284.28 10.1073 1284.28 22.5753C1284.28 35.0432 1274.17 45.1505 1261.71 45.1505C1249.24 45.1505 1239.13 35.0432 1239.13 22.5753Z" id="Oval-Copy-10" fill="#FFA200" fill-rule="evenodd" stroke="none" />
          <path d="M1334.45 22.5753C1334.45 10.1073 1344.56 0 1357.02 0C1369.49 0 1379.6 10.1073 1379.6 22.5753C1379.6 35.0432 1369.49 45.1505 1357.02 45.1505C1344.56 45.1505 1334.45 35.0432 1334.45 22.5753Z" id="Oval-Copy-11" fill="#FFA200" fill-rule="evenodd" stroke="none" />
          <path d="M1429.77 22.5753C1429.77 10.1073 1439.87 0 1452.34 0C1464.81 0 1474.92 10.1073 1474.92 22.5753C1474.92 35.0432 1464.81 45.1505 1452.34 45.1505C1439.87 45.1505 1429.77 35.0432 1429.77 22.5753Z" id="Oval-Copy-12" fill="#FFA200" fill-rule="evenodd" stroke="none" />
          <path d="M1525.08 22.5753C1525.08 10.1073 1535.19 0 1547.66 0C1560.13 0 1570.23 10.1073 1570.23 22.5753C1570.23 35.0432 1560.13 45.1505 1547.66 45.1505C1535.19 45.1505 1525.08 35.0432 1525.08 22.5753Z" id="Oval-Copy-13" fill="#FFA200" fill-rule="evenodd" stroke="none" />
          <path d="M1620.4 22.5753C1620.4 10.1073 1630.51 0 1642.98 0C1655.44 0 1665.55 10.1073 1665.55 22.5753C1665.55 35.0432 1655.44 45.1505 1642.98 45.1505C1630.51 45.1505 1620.4 35.0432 1620.4 22.5753Z" id="Oval-Copy-14" fill="#FFA200" fill-rule="evenodd" stroke="none" />
          <path d="M1715.72 22.5753C1715.72 10.1073 1725.83 0 1738.29 0C1750.76 0 1760.87 10.1073 1760.87 22.5753C1760.87 35.0432 1750.76 45.1505 1738.29 45.1505C1725.83 45.1505 1715.72 35.0432 1715.72 22.5753Z" id="Oval-Copy-15" fill="#FFA200" fill-rule="evenodd" stroke="none" />
          <path d="M190.635 22.5753C190.635 10.1073 200.743 0 213.211 0C225.679 0 235.786 10.1073 235.786 22.5753C235.786 35.0432 225.679 45.1505 213.211 45.1505C200.743 45.1505 190.635 35.0432 190.635 22.5753Z" id="Oval-Copy-32" fill="#FFA200" fill-rule="evenodd" stroke="none" />
          <path d="M0 22.5753C0 10.1073 10.1073 0 22.5753 0C35.0432 0 45.1505 10.1073 45.1505 22.5753C45.1505 35.0432 35.0432 45.1505 22.5753 45.1505C10.1073 45.1505 0 35.0432 0 22.5753Z" id="Oval-Copy-30" fill="#FFA200" fill-rule="evenodd" stroke="none" />
          <path d="M95.3176 22.5753C95.3176 10.1073 105.425 0 117.893 0C130.361 0 140.468 10.1073 140.468 22.5753C140.468 35.0432 130.361 45.1505 117.893 45.1505C105.425 45.1505 95.3176 35.0432 95.3176 22.5753Z" id="Oval-Copy-31" fill="#FFA200" fill-rule="evenodd" stroke="none" />
        </g>
        <g id="Group-Copy-2" transform="translate(0 190.6355)">
          <path d="M285.953 22.5753C285.953 10.1073 296.06 0 308.528 0C320.996 0 331.104 10.1073 331.104 22.5753C331.104 35.0432 320.996 45.1505 308.528 45.1505C296.06 45.1505 285.953 35.0432 285.953 22.5753Z" id="Oval" fill="#FFA200" fill-rule="evenodd" stroke="none" />
          <path d="M381.271 22.5753C381.271 10.1073 391.378 0 403.846 0C416.314 0 426.422 10.1073 426.422 22.5753C426.422 35.0432 416.314 45.1505 403.846 45.1505C391.378 45.1505 381.271 35.0432 381.271 22.5753Z" id="Oval-Copy" fill="#FFA200" fill-rule="evenodd" stroke="none" />
          <path d="M476.589 22.5753C476.589 10.1073 486.696 0 499.164 0C511.632 0 521.739 10.1073 521.739 22.5753C521.739 35.0432 511.632 45.1505 499.164 45.1505C486.696 45.1505 476.589 35.0432 476.589 22.5753Z" id="Oval-Copy-2" fill="#FFA200" fill-rule="evenodd" stroke="none" />
          <path d="M571.906 22.5753C571.906 10.1073 582.014 0 594.482 0C606.949 0 617.057 10.1073 617.057 22.5753C617.057 35.0432 606.949 45.1505 594.482 45.1505C582.014 45.1505 571.906 35.0432 571.906 22.5753Z" id="Oval-Copy-3" fill="#FFA200" fill-rule="evenodd" stroke="none" />
          <path d="M667.224 22.5753C667.224 10.1073 677.331 0 689.799 0C702.267 0 712.375 10.1073 712.375 22.5753C712.375 35.0432 702.267 45.1505 689.799 45.1505C677.331 45.1505 667.224 35.0432 667.224 22.5753Z" id="Oval-Copy-4" fill="#FFA200" fill-rule="evenodd" stroke="none" />
          <path d="M762.542 22.5753C762.542 10.1073 772.649 0 785.117 0C797.585 0 807.692 10.1073 807.692 22.5753C807.692 35.0432 797.585 45.1505 785.117 45.1505C772.649 45.1505 762.542 35.0432 762.542 22.5753Z" id="Oval-Copy-5" fill="#FFA200" fill-rule="evenodd" stroke="none" />
          <path d="M857.859 22.5753C857.859 10.1073 867.967 0 880.435 0C892.903 0 903.01 10.1073 903.01 22.5753C903.01 35.0432 892.903 45.1505 880.435 45.1505C867.967 45.1505 857.859 35.0432 857.859 22.5753Z" id="Oval-Copy-6" fill="#FFA200" fill-rule="evenodd" stroke="none" />
          <path d="M953.177 22.5753C953.177 10.1073 963.285 0 975.753 0C988.22 0 998.328 10.1073 998.328 22.5753C998.328 35.0432 988.22 45.1505 975.753 45.1505C963.285 45.1505 953.177 35.0432 953.177 22.5753Z" id="Oval-Copy-7" fill="#FFA200" fill-rule="evenodd" stroke="none" />
          <path d="M1048.5 22.5753C1048.5 10.1073 1058.6 0 1071.07 0C1083.54 0 1093.65 10.1073 1093.65 22.5753C1093.65 35.0432 1083.54 45.1505 1071.07 45.1505C1058.6 45.1505 1048.5 35.0432 1048.5 22.5753Z" id="Oval-Copy-8" fill="#FFA200" fill-rule="evenodd" stroke="none" />
          <path d="M1143.81 22.5753C1143.81 10.1073 1153.92 0 1166.39 0C1178.86 0 1188.96 10.1073 1188.96 22.5753C1188.96 35.0432 1178.86 45.1505 1166.39 45.1505C1153.92 45.1505 1143.81 35.0432 1143.81 22.5753Z" id="Oval-Copy-9" fill="#FFA200" fill-rule="evenodd" stroke="none" />
          <path d="M1239.13 22.5753C1239.13 10.1073 1249.24 0 1261.71 0C1274.17 0 1284.28 10.1073 1284.28 22.5753C1284.28 35.0432 1274.17 45.1505 1261.71 45.1505C1249.24 45.1505 1239.13 35.0432 1239.13 22.5753Z" id="Oval-Copy-10" fill="#FFA200" fill-rule="evenodd" stroke="none" />
          <path d="M1334.45 22.5753C1334.45 10.1073 1344.56 0 1357.02 0C1369.49 0 1379.6 10.1073 1379.6 22.5753C1379.6 35.0432 1369.49 45.1505 1357.02 45.1505C1344.56 45.1505 1334.45 35.0432 1334.45 22.5753Z" id="Oval-Copy-11" fill="#FFA200" fill-rule="evenodd" stroke="none" />
          <path d="M1429.77 22.5753C1429.77 10.1073 1439.87 0 1452.34 0C1464.81 0 1474.92 10.1073 1474.92 22.5753C1474.92 35.0432 1464.81 45.1505 1452.34 45.1505C1439.87 45.1505 1429.77 35.0432 1429.77 22.5753Z" id="Oval-Copy-12" fill="#FFA200" fill-rule="evenodd" stroke="none" />
          <path d="M1525.08 22.5753C1525.08 10.1073 1535.19 0 1547.66 0C1560.13 0 1570.23 10.1073 1570.23 22.5753C1570.23 35.0432 1560.13 45.1505 1547.66 45.1505C1535.19 45.1505 1525.08 35.0432 1525.08 22.5753Z" id="Oval-Copy-13" fill="#FFA200" fill-rule="evenodd" stroke="none" />
          <path d="M1620.4 22.5753C1620.4 10.1073 1630.51 0 1642.98 0C1655.44 0 1665.55 10.1073 1665.55 22.5753C1665.55 35.0432 1655.44 45.1505 1642.98 45.1505C1630.51 45.1505 1620.4 35.0432 1620.4 22.5753Z" id="Oval-Copy-14" fill="#FFA200" fill-rule="evenodd" stroke="none" />
          <path d="M1715.72 22.5753C1715.72 10.1073 1725.83 0 1738.29 0C1750.76 0 1760.87 10.1073 1760.87 22.5753C1760.87 35.0432 1750.76 45.1505 1738.29 45.1505C1725.83 45.1505 1715.72 35.0432 1715.72 22.5753Z" id="Oval-Copy-15" fill="#FFA200" fill-rule="evenodd" stroke="none" />
          <path d="M190.635 22.5753C190.635 10.1073 200.743 0 213.211 0C225.679 0 235.786 10.1073 235.786 22.5753C235.786 35.0432 225.679 45.1505 213.211 45.1505C200.743 45.1505 190.635 35.0432 190.635 22.5753Z" id="Oval-Copy-32" fill="#FFA200" fill-rule="evenodd" stroke="none" />
          <path d="M0 22.5753C0 10.1073 10.1073 0 22.5753 0C35.0432 0 45.1505 10.1073 45.1505 22.5753C45.1505 35.0432 35.0432 45.1505 22.5753 45.1505C10.1073 45.1505 0 35.0432 0 22.5753Z" id="Oval-Copy-30" fill="#FFA200" fill-rule="evenodd" stroke="none" />
          <path d="M95.3176 22.5753C95.3176 10.1073 105.425 0 117.893 0C130.361 0 140.468 10.1073 140.468 22.5753C140.468 35.0432 130.361 45.1505 117.893 45.1505C105.425 45.1505 95.3176 35.0432 95.3176 22.5753Z" id="Oval-Copy-31" fill="#FFA200" fill-rule="evenodd" stroke="none" />
        </g>
        <g id="Group-Copy-3" transform="translate(0 285.95312)">
          <path d="M285.953 22.5753C285.953 10.1073 296.06 0 308.528 0C320.996 0 331.104 10.1073 331.104 22.5753C331.104 35.0432 320.996 45.1505 308.528 45.1505C296.06 45.1505 285.953 35.0432 285.953 22.5753Z" id="Oval" fill="#FFA200" fill-rule="evenodd" stroke="none" />
          <path d="M381.271 22.5753C381.271 10.1073 391.378 0 403.846 0C416.314 0 426.422 10.1073 426.422 22.5753C426.422 35.0432 416.314 45.1505 403.846 45.1505C391.378 45.1505 381.271 35.0432 381.271 22.5753Z" id="Oval-Copy" fill="#FFA200" fill-rule="evenodd" stroke="none" />
          <path d="M476.589 22.5753C476.589 10.1073 486.696 0 499.164 0C511.632 0 521.739 10.1073 521.739 22.5753C521.739 35.0432 511.632 45.1505 499.164 45.1505C486.696 45.1505 476.589 35.0432 476.589 22.5753Z" id="Oval-Copy-2" fill="#FFA200" fill-rule="evenodd" stroke="none" />
          <path d="M571.906 22.5753C571.906 10.1073 582.014 0 594.482 0C606.949 0 617.057 10.1073 617.057 22.5753C617.057 35.0432 606.949 45.1505 594.482 45.1505C582.014 45.1505 571.906 35.0432 571.906 22.5753Z" id="Oval-Copy-3" fill="#FFA200" fill-rule="evenodd" stroke="none" />
          <path d="M667.224 22.5753C667.224 10.1073 677.331 0 689.799 0C702.267 0 712.375 10.1073 712.375 22.5753C712.375 35.0432 702.267 45.1505 689.799 45.1505C677.331 45.1505 667.224 35.0432 667.224 22.5753Z" id="Oval-Copy-4" fill="#FFA200" fill-rule="evenodd" stroke="none" />
          <path d="M762.542 22.5753C762.542 10.1073 772.649 0 785.117 0C797.585 0 807.692 10.1073 807.692 22.5753C807.692 35.0432 797.585 45.1505 785.117 45.1505C772.649 45.1505 762.542 35.0432 762.542 22.5753Z" id="Oval-Copy-5" fill="#FFA200" fill-rule="evenodd" stroke="none" />
          <path d="M857.859 22.5753C857.859 10.1073 867.967 0 880.435 0C892.903 0 903.01 10.1073 903.01 22.5753C903.01 35.0432 892.903 45.1505 880.435 45.1505C867.967 45.1505 857.859 35.0432 857.859 22.5753Z" id="Oval-Copy-6" fill="#FFA200" fill-rule="evenodd" stroke="none" />
          <path d="M953.177 22.5753C953.177 10.1073 963.285 0 975.753 0C988.22 0 998.328 10.1073 998.328 22.5753C998.328 35.0432 988.22 45.1505 975.753 45.1505C963.285 45.1505 953.177 35.0432 953.177 22.5753Z" id="Oval-Copy-7" fill="#FFA200" fill-rule="evenodd" stroke="none" />
          <path d="M1048.5 22.5753C1048.5 10.1073 1058.6 0 1071.07 0C1083.54 0 1093.65 10.1073 1093.65 22.5753C1093.65 35.0432 1083.54 45.1505 1071.07 45.1505C1058.6 45.1505 1048.5 35.0432 1048.5 22.5753Z" id="Oval-Copy-8" fill="#FFA200" fill-rule="evenodd" stroke="none" />
          <path d="M1143.81 22.5753C1143.81 10.1073 1153.92 0 1166.39 0C1178.86 0 1188.96 10.1073 1188.96 22.5753C1188.96 35.0432 1178.86 45.1505 1166.39 45.1505C1153.92 45.1505 1143.81 35.0432 1143.81 22.5753Z" id="Oval-Copy-9" fill="#FFA200" fill-rule="evenodd" stroke="none" />
          <path d="M1239.13 22.5753C1239.13 10.1073 1249.24 0 1261.71 0C1274.17 0 1284.28 10.1073 1284.28 22.5753C1284.28 35.0432 1274.17 45.1505 1261.71 45.1505C1249.24 45.1505 1239.13 35.0432 1239.13 22.5753Z" id="Oval-Copy-10" fill="#FFA200" fill-rule="evenodd" stroke="none" />
          <path d="M1334.45 22.5753C1334.45 10.1073 1344.56 0 1357.02 0C1369.49 0 1379.6 10.1073 1379.6 22.5753C1379.6 35.0432 1369.49 45.1505 1357.02 45.1505C1344.56 45.1505 1334.45 35.0432 1334.45 22.5753Z" id="Oval-Copy-11" fill="#FFA200" fill-rule="evenodd" stroke="none" />
          <path d="M1429.77 22.5753C1429.77 10.1073 1439.87 0 1452.34 0C1464.81 0 1474.92 10.1073 1474.92 22.5753C1474.92 35.0432 1464.81 45.1505 1452.34 45.1505C1439.87 45.1505 1429.77 35.0432 1429.77 22.5753Z" id="Oval-Copy-12" fill="#FFA200" fill-rule="evenodd" stroke="none" />
          <path d="M1525.08 22.5753C1525.08 10.1073 1535.19 0 1547.66 0C1560.13 0 1570.23 10.1073 1570.23 22.5753C1570.23 35.0432 1560.13 45.1505 1547.66 45.1505C1535.19 45.1505 1525.08 35.0432 1525.08 22.5753Z" id="Oval-Copy-13" fill="#FFA200" fill-rule="evenodd" stroke="none" />
          <path d="M1620.4 22.5753C1620.4 10.1073 1630.51 0 1642.98 0C1655.44 0 1665.55 10.1073 1665.55 22.5753C1665.55 35.0432 1655.44 45.1505 1642.98 45.1505C1630.51 45.1505 1620.4 35.0432 1620.4 22.5753Z" id="Oval-Copy-14" fill="#FFA200" fill-rule="evenodd" stroke="none" />
          <path d="M1715.72 22.5753C1715.72 10.1073 1725.83 0 1738.29 0C1750.76 0 1760.87 10.1073 1760.87 22.5753C1760.87 35.0432 1750.76 45.1505 1738.29 45.1505C1725.83 45.1505 1715.72 35.0432 1715.72 22.5753Z" id="Oval-Copy-15" fill="#FFA200" fill-rule="evenodd" stroke="none" />
          <path d="M190.635 22.5753C190.635 10.1073 200.743 0 213.211 0C225.679 0 235.786 10.1073 235.786 22.5753C235.786 35.0432 225.679 45.1505 213.211 45.1505C200.743 45.1505 190.635 35.0432 190.635 22.5753Z" id="Oval-Copy-32" fill="#FFA200" fill-rule="evenodd" stroke="none" />
          <path d="M0 22.5753C0 10.1073 10.1073 0 22.5753 0C35.0432 0 45.1505 10.1073 45.1505 22.5753C45.1505 35.0432 35.0432 45.1505 22.5753 45.1505C10.1073 45.1505 0 35.0432 0 22.5753Z" id="Oval-Copy-30" fill="#FFA200" fill-rule="evenodd" stroke="none" />
          <path d="M95.3176 22.5753C95.3176 10.1073 105.425 0 117.893 0C130.361 0 140.468 10.1073 140.468 22.5753C140.468 35.0432 130.361 45.1505 117.893 45.1505C105.425 45.1505 95.3176 35.0432 95.3176 22.5753Z" id="Oval-Copy-31" fill="#FFA200" fill-rule="evenodd" stroke="none" />
        </g>
        <path d="M285.953 403.846C285.953 391.378 296.06 381.271 308.528 381.271C320.996 381.271 331.104 391.378 331.104 403.846C331.104 416.314 320.996 426.421 308.528 426.421C296.06 426.421 285.953 416.314 285.953 403.846Z" id="Oval" fill="#FFA200" fill-rule="evenodd" stroke="none" />
        <path d="M381.271 403.846C381.271 391.378 391.378 381.271 403.846 381.271C416.314 381.271 426.422 391.378 426.422 403.846C426.422 416.314 416.314 426.421 403.846 426.421C391.378 426.421 381.271 416.314 381.271 403.846Z" id="Oval-Copy" fill="#FFA200" fill-rule="evenodd" stroke="none" />
        <path d="M476.589 403.846C476.589 391.378 486.696 381.271 499.164 381.271C511.632 381.271 521.739 391.378 521.739 403.846C521.739 416.314 511.632 426.421 499.164 426.421C486.696 426.421 476.589 416.314 476.589 403.846Z" id="Oval-Copy-2" fill="#FFA200" fill-rule="evenodd" stroke="none" />
        <path d="M571.906 403.846C571.906 391.378 582.014 381.271 594.482 381.271C606.949 381.271 617.057 391.378 617.057 403.846C617.057 416.314 606.949 426.421 594.482 426.421C582.014 426.421 571.906 416.314 571.906 403.846Z" id="Oval-Copy-3" fill="#FFA200" fill-rule="evenodd" stroke="none" />
        <path d="M667.224 403.846C667.224 391.378 677.331 381.271 689.799 381.271C702.267 381.271 712.375 391.378 712.375 403.846C712.375 416.314 702.267 426.421 689.799 426.421C677.331 426.421 667.224 416.314 667.224 403.846Z" id="Oval-Copy-4" fill="#FFA200" fill-rule="evenodd" stroke="none" />
        <path d="M762.542 403.846C762.542 391.378 772.649 381.271 785.117 381.271C797.585 381.271 807.692 391.378 807.692 403.846C807.692 416.314 797.585 426.421 785.117 426.421C772.649 426.421 762.542 416.314 762.542 403.846Z" id="Oval-Copy-5" fill="#FFA200" fill-rule="evenodd" stroke="none" />
        <path d="M857.859 403.846C857.859 391.378 867.967 381.271 880.435 381.271C892.903 381.271 903.01 391.378 903.01 403.846C903.01 416.314 892.903 426.421 880.435 426.421C867.967 426.421 857.859 416.314 857.859 403.846Z" id="Oval-Copy-6" fill="#FFA200" fill-rule="evenodd" stroke="none" />
        <path d="M953.177 403.846C953.177 391.378 963.285 381.271 975.753 381.271C988.22 381.271 998.328 391.378 998.328 403.846C998.328 416.314 988.22 426.421 975.753 426.421C963.285 426.421 953.177 416.314 953.177 403.846Z" id="Oval-Copy-7" fill="#FFA200" fill-rule="evenodd" stroke="none" />
        <path d="M1048.5 403.846C1048.5 391.378 1058.6 381.271 1071.07 381.271C1083.54 381.271 1093.65 391.378 1093.65 403.846C1093.65 416.314 1083.54 426.421 1071.07 426.421C1058.6 426.421 1048.5 416.314 1048.5 403.846Z" id="Oval-Copy-8" fill="#FFA200" fill-rule="evenodd" stroke="none" />
        <path d="M1143.81 403.846C1143.81 391.378 1153.92 381.271 1166.39 381.271C1178.86 381.271 1188.96 391.378 1188.96 403.846C1188.96 416.314 1178.86 426.421 1166.39 426.421C1153.92 426.421 1143.81 416.314 1143.81 403.846Z" id="Oval-Copy-9" fill="#FFA200" fill-rule="evenodd" stroke="none" />
        <path d="M1239.13 403.846C1239.13 391.378 1249.24 381.271 1261.71 381.271C1274.17 381.271 1284.28 391.378 1284.28 403.846C1284.28 416.314 1274.17 426.421 1261.71 426.421C1249.24 426.421 1239.13 416.314 1239.13 403.846Z" id="Oval-Copy-10" fill="#FFA200" fill-rule="evenodd" stroke="none" />
        <path d="M1334.45 403.846C1334.45 391.378 1344.56 381.271 1357.02 381.271C1369.49 381.271 1379.6 391.378 1379.6 403.846C1379.6 416.314 1369.49 426.421 1357.02 426.421C1344.56 426.421 1334.45 416.314 1334.45 403.846Z" id="Oval-Copy-11" fill="#FFA200" fill-rule="evenodd" stroke="none" />
        <path d="M1429.77 403.846C1429.77 391.378 1439.87 381.271 1452.34 381.271C1464.81 381.271 1474.92 391.378 1474.92 403.846C1474.92 416.314 1464.81 426.421 1452.34 426.421C1439.87 426.421 1429.77 416.314 1429.77 403.846Z" id="Oval-Copy-12" fill="#FFA200" fill-rule="evenodd" stroke="none" />
        <path d="M1525.08 403.846C1525.08 391.378 1535.19 381.271 1547.66 381.271C1560.13 381.271 1570.23 391.378 1570.23 403.846C1570.23 416.314 1560.13 426.421 1547.66 426.421C1535.19 426.421 1525.08 416.314 1525.08 403.846Z" id="Oval-Copy-13" fill="#FFA200" fill-rule="evenodd" stroke="none" />
        <path d="M1620.4 403.846C1620.4 391.378 1630.51 381.271 1642.98 381.271C1655.44 381.271 1665.55 391.378 1665.55 403.846C1665.55 416.314 1655.44 426.421 1642.98 426.421C1630.51 426.421 1620.4 416.314 1620.4 403.846Z" id="Oval-Copy-14" fill="#FFA200" fill-rule="evenodd" stroke="none" />
        <path d="M1715.72 403.846C1715.72 391.378 1725.83 381.271 1738.29 381.271C1750.76 381.271 1760.87 391.378 1760.87 403.846C1760.87 416.314 1750.76 426.421 1738.29 426.421C1725.83 426.421 1715.72 416.314 1715.72 403.846Z" id="Oval-Copy-15" fill="#FFA200" fill-rule="evenodd" stroke="none" />
        <path d="M190.635 403.846C190.635 391.378 200.743 381.271 213.211 381.271C225.679 381.271 235.786 391.378 235.786 403.846C235.786 416.314 225.679 426.421 213.211 426.421C200.743 426.421 190.635 416.314 190.635 403.846Z" id="Oval-Copy-32" fill="#FFA200" fill-rule="evenodd" stroke="none" />
        <path d="M0 403.846C0 391.378 10.1073 381.271 22.5753 381.271C35.0432 381.271 45.1505 391.378 45.1505 403.846C45.1505 416.314 35.0432 426.421 22.5753 426.421C10.1073 426.421 0 416.314 0 403.846Z" id="Oval-Copy-30" fill="#FFA200" fill-rule="evenodd" stroke="none" />
        <path d="M95.3176 403.846C95.3176 391.378 105.425 381.271 117.893 381.271C130.361 381.271 140.468 391.378 140.468 403.846C140.468 416.314 130.361 426.421 117.893 426.421C105.425 426.421 95.3176 416.314 95.3176 403.846Z" id="Oval-Copy-31" fill="#FFA200" fill-rule="evenodd" stroke="none" />
        <path d="M285.953 499.164C285.953 486.696 296.06 476.589 308.528 476.589C320.996 476.589 331.104 486.696 331.104 499.164C331.104 511.632 320.996 521.739 308.528 521.739C296.06 521.739 285.953 511.632 285.953 499.164Z" id="Oval" fill="#FFA200" fill-rule="evenodd" stroke="none" />
        <path d="M381.271 499.164C381.271 486.696 391.378 476.589 403.846 476.589C416.314 476.589 426.422 486.696 426.422 499.164C426.422 511.632 416.314 521.739 403.846 521.739C391.378 521.739 381.271 511.632 381.271 499.164Z" id="Oval-Copy" fill="#FFA200" fill-rule="evenodd" stroke="none" />
        <path d="M476.589 499.164C476.589 486.696 486.696 476.589 499.164 476.589C511.632 476.589 521.739 486.696 521.739 499.164C521.739 511.632 511.632 521.739 499.164 521.739C486.696 521.739 476.589 511.632 476.589 499.164Z" id="Oval-Copy-2" fill="#FFA200" fill-rule="evenodd" stroke="none" />
        <path d="M571.906 499.164C571.906 486.696 582.014 476.589 594.482 476.589C606.949 476.589 617.057 486.696 617.057 499.164C617.057 511.632 606.949 521.739 594.482 521.739C582.014 521.739 571.906 511.632 571.906 499.164Z" id="Oval-Copy-3" fill="#FFA200" fill-rule="evenodd" stroke="none" />
        <path d="M667.224 499.164C667.224 486.696 677.331 476.589 689.799 476.589C702.267 476.589 712.375 486.696 712.375 499.164C712.375 511.632 702.267 521.739 689.799 521.739C677.331 521.739 667.224 511.632 667.224 499.164Z" id="Oval-Copy-4" fill="#FFA200" fill-rule="evenodd" stroke="none" />
        <path d="M762.542 499.164C762.542 486.696 772.649 476.589 785.117 476.589C797.585 476.589 807.692 486.696 807.692 499.164C807.692 511.632 797.585 521.739 785.117 521.739C772.649 521.739 762.542 511.632 762.542 499.164Z" id="Oval-Copy-5" fill="#FFA200" fill-rule="evenodd" stroke="none" />
        <path d="M857.859 499.164C857.859 486.696 867.967 476.589 880.435 476.589C892.903 476.589 903.01 486.696 903.01 499.164C903.01 511.632 892.903 521.739 880.435 521.739C867.967 521.739 857.859 511.632 857.859 499.164Z" id="Oval-Copy-6" fill="#FFA200" fill-rule="evenodd" stroke="none" />
        <path d="M953.177 499.164C953.177 486.696 963.285 476.589 975.753 476.589C988.22 476.589 998.328 486.696 998.328 499.164C998.328 511.632 988.22 521.739 975.753 521.739C963.285 521.739 953.177 511.632 953.177 499.164Z" id="Oval-Copy-7" fill="#FFA200" fill-rule="evenodd" stroke="none" />
        <path d="M1048.5 499.164C1048.5 486.696 1058.6 476.589 1071.07 476.589C1083.54 476.589 1093.65 486.696 1093.65 499.164C1093.65 511.632 1083.54 521.739 1071.07 521.739C1058.6 521.739 1048.5 511.632 1048.5 499.164Z" id="Oval-Copy-8" fill="#FFA200" fill-rule="evenodd" stroke="none" />
        <path d="M1143.81 499.164C1143.81 486.696 1153.92 476.589 1166.39 476.589C1178.86 476.589 1188.96 486.696 1188.96 499.164C1188.96 511.632 1178.86 521.739 1166.39 521.739C1153.92 521.739 1143.81 511.632 1143.81 499.164Z" id="Oval-Copy-9" fill="#FFA200" fill-rule="evenodd" stroke="none" />
        <path d="M1239.13 499.164C1239.13 486.696 1249.24 476.589 1261.71 476.589C1274.17 476.589 1284.28 486.696 1284.28 499.164C1284.28 511.632 1274.17 521.739 1261.71 521.739C1249.24 521.739 1239.13 511.632 1239.13 499.164Z" id="Oval-Copy-10" fill="#FFA200" fill-rule="evenodd" stroke="none" />
        <path d="M1334.45 499.164C1334.45 486.696 1344.56 476.589 1357.02 476.589C1369.49 476.589 1379.6 486.696 1379.6 499.164C1379.6 511.632 1369.49 521.739 1357.02 521.739C1344.56 521.739 1334.45 511.632 1334.45 499.164Z" id="Oval-Copy-11" fill="#FFA200" fill-rule="evenodd" stroke="none" />
        <path d="M1429.77 499.164C1429.77 486.696 1439.87 476.589 1452.34 476.589C1464.81 476.589 1474.92 486.696 1474.92 499.164C1474.92 511.632 1464.81 521.739 1452.34 521.739C1439.87 521.739 1429.77 511.632 1429.77 499.164Z" id="Oval-Copy-12" fill="#FFA200" fill-rule="evenodd" stroke="none" />
        <path d="M1525.08 499.164C1525.08 486.696 1535.19 476.589 1547.66 476.589C1560.13 476.589 1570.23 486.696 1570.23 499.164C1570.23 511.632 1560.13 521.739 1547.66 521.739C1535.19 521.739 1525.08 511.632 1525.08 499.164Z" id="Oval-Copy-13" fill="#FFA200" fill-rule="evenodd" stroke="none" />
        <path d="M1620.4 499.164C1620.4 486.696 1630.51 476.589 1642.98 476.589C1655.44 476.589 1665.55 486.696 1665.55 499.164C1665.55 511.632 1655.44 521.739 1642.98 521.739C1630.51 521.739 1620.4 511.632 1620.4 499.164Z" id="Oval-Copy-14" fill="#FFA200" fill-rule="evenodd" stroke="none" />
        <path d="M1715.72 499.164C1715.72 486.696 1725.83 476.589 1738.29 476.589C1750.76 476.589 1760.87 486.696 1760.87 499.164C1760.87 511.632 1750.76 521.739 1738.29 521.739C1725.83 521.739 1715.72 511.632 1715.72 499.164Z" id="Oval-Copy-15" fill="#FFA200" fill-rule="evenodd" stroke="none" />
        <path d="M190.635 499.164C190.635 486.696 200.743 476.589 213.211 476.589C225.679 476.589 235.786 486.696 235.786 499.164C235.786 511.632 225.679 521.739 213.211 521.739C200.743 521.739 190.635 511.632 190.635 499.164Z" id="Oval-Copy-32" fill="#FFA200" fill-rule="evenodd" stroke="none" />
        <path d="M0 499.164C0 486.696 10.1073 476.589 22.5753 476.589C35.0432 476.589 45.1505 486.696 45.1505 499.164C45.1505 511.632 35.0432 521.739 22.5753 521.739C10.1073 521.739 0 511.632 0 499.164Z" id="Oval-Copy-30" fill="#FFA200" fill-rule="evenodd" stroke="none" />
        <path d="M95.3176 499.164C95.3176 486.696 105.425 476.589 117.893 476.589C130.361 476.589 140.468 486.696 140.468 499.164C140.468 511.632 130.361 521.739 117.893 521.739C105.425 521.739 95.3176 511.632 95.3176 499.164Z" id="Oval-Copy-31" fill="#FFA200" fill-rule="evenodd" stroke="none" />
        <path d="M285.953 594.482C285.953 582.014 296.06 571.906 308.528 571.906C320.996 571.906 331.104 582.014 331.104 594.482C331.104 606.949 320.996 617.057 308.528 617.057C296.06 617.057 285.953 606.949 285.953 594.482Z" id="Oval" fill="#FFA200" fill-rule="evenodd" stroke="none" />
        <path d="M381.271 594.482C381.271 582.014 391.378 571.906 403.846 571.906C416.314 571.906 426.422 582.014 426.422 594.482C426.422 606.949 416.314 617.057 403.846 617.057C391.378 617.057 381.271 606.949 381.271 594.482Z" id="Oval-Copy" fill="#FFA200" fill-rule="evenodd" stroke="none" />
        <path d="M476.589 594.482C476.589 582.014 486.696 571.906 499.164 571.906C511.632 571.906 521.739 582.014 521.739 594.482C521.739 606.949 511.632 617.057 499.164 617.057C486.696 617.057 476.589 606.949 476.589 594.482Z" id="Oval-Copy-2" fill="#FFA200" fill-rule="evenodd" stroke="none" />
        <path d="M571.906 594.482C571.906 582.014 582.014 571.906 594.482 571.906C606.949 571.906 617.057 582.014 617.057 594.482C617.057 606.949 606.949 617.057 594.482 617.057C582.014 617.057 571.906 606.949 571.906 594.482Z" id="Oval-Copy-3" fill="#FFA200" fill-rule="evenodd" stroke="none" />
        <path d="M667.224 594.482C667.224 582.014 677.331 571.906 689.799 571.906C702.267 571.906 712.375 582.014 712.375 594.482C712.375 606.949 702.267 617.057 689.799 617.057C677.331 617.057 667.224 606.949 667.224 594.482Z" id="Oval-Copy-4" fill="#FFA200" fill-rule="evenodd" stroke="none" />
        <path d="M762.542 594.482C762.542 582.014 772.649 571.906 785.117 571.906C797.585 571.906 807.692 582.014 807.692 594.482C807.692 606.949 797.585 617.057 785.117 617.057C772.649 617.057 762.542 606.949 762.542 594.482Z" id="Oval-Copy-5" fill="#FFA200" fill-rule="evenodd" stroke="none" />
        <path d="M857.859 594.482C857.859 582.014 867.967 571.906 880.435 571.906C892.903 571.906 903.01 582.014 903.01 594.482C903.01 606.949 892.903 617.057 880.435 617.057C867.967 617.057 857.859 606.949 857.859 594.482Z" id="Oval-Copy-6" fill="#FFA200" fill-rule="evenodd" stroke="none" />
        <path d="M953.177 594.482C953.177 582.014 963.285 571.906 975.753 571.906C988.22 571.906 998.328 582.014 998.328 594.482C998.328 606.949 988.22 617.057 975.753 617.057C963.285 617.057 953.177 606.949 953.177 594.482Z" id="Oval-Copy-7" fill="#FFA200" fill-rule="evenodd" stroke="none" />
        <path d="M1048.5 594.482C1048.5 582.014 1058.6 571.906 1071.07 571.906C1083.54 571.906 1093.65 582.014 1093.65 594.482C1093.65 606.949 1083.54 617.057 1071.07 617.057C1058.6 617.057 1048.5 606.949 1048.5 594.482Z" id="Oval-Copy-8" fill="#FFA200" fill-rule="evenodd" stroke="none" />
        <path d="M1143.81 594.482C1143.81 582.014 1153.92 571.906 1166.39 571.906C1178.86 571.906 1188.96 582.014 1188.96 594.482C1188.96 606.949 1178.86 617.057 1166.39 617.057C1153.92 617.057 1143.81 606.949 1143.81 594.482Z" id="Oval-Copy-9" fill="#FFA200" fill-rule="evenodd" stroke="none" />
        <path d="M1239.13 594.482C1239.13 582.014 1249.24 571.906 1261.71 571.906C1274.17 571.906 1284.28 582.014 1284.28 594.482C1284.28 606.949 1274.17 617.057 1261.71 617.057C1249.24 617.057 1239.13 606.949 1239.13 594.482Z" id="Oval-Copy-10" fill="#FFA200" fill-rule="evenodd" stroke="none" />
        <path d="M1334.45 594.482C1334.45 582.014 1344.56 571.906 1357.02 571.906C1369.49 571.906 1379.6 582.014 1379.6 594.482C1379.6 606.949 1369.49 617.057 1357.02 617.057C1344.56 617.057 1334.45 606.949 1334.45 594.482Z" id="Oval-Copy-11" fill="#FFA200" fill-rule="evenodd" stroke="none" />
        <path d="M1429.77 594.482C1429.77 582.014 1439.87 571.906 1452.34 571.906C1464.81 571.906 1474.92 582.014 1474.92 594.482C1474.92 606.949 1464.81 617.057 1452.34 617.057C1439.87 617.057 1429.77 606.949 1429.77 594.482Z" id="Oval-Copy-12" fill="#FFA200" fill-rule="evenodd" stroke="none" />
        <path d="M1525.08 594.482C1525.08 582.014 1535.19 571.906 1547.66 571.906C1560.13 571.906 1570.23 582.014 1570.23 594.482C1570.23 606.949 1560.13 617.057 1547.66 617.057C1535.19 617.057 1525.08 606.949 1525.08 594.482Z" id="Oval-Copy-13" fill="#FFA200" fill-rule="evenodd" stroke="none" />
        <path d="M1620.4 594.482C1620.4 582.014 1630.51 571.906 1642.98 571.906C1655.44 571.906 1665.55 582.014 1665.55 594.482C1665.55 606.949 1655.44 617.057 1642.98 617.057C1630.51 617.057 1620.4 606.949 1620.4 594.482Z" id="Oval-Copy-14" fill="#FFA200" fill-rule="evenodd" stroke="none" />
        <path d="M1715.72 594.482C1715.72 582.014 1725.83 571.906 1738.29 571.906C1750.76 571.906 1760.87 582.014 1760.87 594.482C1760.87 606.949 1750.76 617.057 1738.29 617.057C1725.83 617.057 1715.72 606.949 1715.72 594.482Z" id="Oval-Copy-15" fill="#FFA200" fill-rule="evenodd" stroke="none" />
        <path d="M190.635 594.482C190.635 582.014 200.743 571.906 213.211 571.906C225.679 571.906 235.786 582.014 235.786 594.482C235.786 606.949 225.679 617.057 213.211 617.057C200.743 617.057 190.635 606.949 190.635 594.482Z" id="Oval-Copy-32" fill="#FFA200" fill-rule="evenodd" stroke="none" />
        <path d="M0 594.482C0 582.014 10.1073 571.906 22.5753 571.906C35.0432 571.906 45.1505 582.014 45.1505 594.482C45.1505 606.949 35.0432 617.057 22.5753 617.057C10.1073 617.057 0 606.949 0 594.482Z" id="Oval-Copy-30" fill="#FFA200" fill-rule="evenodd" stroke="none" />
        <path d="M95.3176 594.482C95.3176 582.014 105.425 571.906 117.893 571.906C130.361 571.906 140.468 582.014 140.468 594.482C140.468 606.949 130.361 617.057 117.893 617.057C105.425 617.057 95.3176 606.949 95.3176 594.482Z" id="Oval-Copy-31" fill="#FFA200" fill-rule="evenodd" stroke="none" />
        <path d="M285.953 689.799C285.953 677.331 296.06 667.224 308.528 667.224C320.996 667.224 331.104 677.331 331.104 689.799C331.104 702.267 320.996 712.375 308.528 712.375C296.06 712.375 285.953 702.267 285.953 689.799Z" id="Oval" fill="#FFA200" fill-rule="evenodd" stroke="none" />
        <path d="M381.271 689.799C381.271 677.331 391.378 667.224 403.846 667.224C416.314 667.224 426.422 677.331 426.422 689.799C426.422 702.267 416.314 712.375 403.846 712.375C391.378 712.375 381.271 702.267 381.271 689.799Z" id="Oval-Copy" fill="#FFA200" fill-rule="evenodd" stroke="none" />
        <path d="M476.589 689.799C476.589 677.331 486.696 667.224 499.164 667.224C511.632 667.224 521.739 677.331 521.739 689.799C521.739 702.267 511.632 712.375 499.164 712.375C486.696 712.375 476.589 702.267 476.589 689.799Z" id="Oval-Copy-2" fill="#FFA200" fill-rule="evenodd" stroke="none" />
        <path d="M571.906 689.799C571.906 677.331 582.014 667.224 594.482 667.224C606.949 667.224 617.057 677.331 617.057 689.799C617.057 702.267 606.949 712.375 594.482 712.375C582.014 712.375 571.906 702.267 571.906 689.799Z" id="Oval-Copy-3" fill="#FFA200" fill-rule="evenodd" stroke="none" />
        <path d="M667.224 689.799C667.224 677.331 677.331 667.224 689.799 667.224C702.267 667.224 712.375 677.331 712.375 689.799C712.375 702.267 702.267 712.375 689.799 712.375C677.331 712.375 667.224 702.267 667.224 689.799Z" id="Oval-Copy-4" fill="#FFA200" fill-rule="evenodd" stroke="none" />
        <path d="M762.542 689.799C762.542 677.331 772.649 667.224 785.117 667.224C797.585 667.224 807.692 677.331 807.692 689.799C807.692 702.267 797.585 712.375 785.117 712.375C772.649 712.375 762.542 702.267 762.542 689.799Z" id="Oval-Copy-5" fill="#FFA200" fill-rule="evenodd" stroke="none" />
        <path d="M857.859 689.799C857.859 677.331 867.967 667.224 880.435 667.224C892.903 667.224 903.01 677.331 903.01 689.799C903.01 702.267 892.903 712.375 880.435 712.375C867.967 712.375 857.859 702.267 857.859 689.799Z" id="Oval-Copy-6" fill="#FFA200" fill-rule="evenodd" stroke="none" />
        <path d="M953.177 689.799C953.177 677.331 963.285 667.224 975.753 667.224C988.22 667.224 998.328 677.331 998.328 689.799C998.328 702.267 988.22 712.375 975.753 712.375C963.285 712.375 953.177 702.267 953.177 689.799Z" id="Oval-Copy-7" fill="#FFA200" fill-rule="evenodd" stroke="none" />
        <path d="M1048.5 689.799C1048.5 677.331 1058.6 667.224 1071.07 667.224C1083.54 667.224 1093.65 677.331 1093.65 689.799C1093.65 702.267 1083.54 712.375 1071.07 712.375C1058.6 712.375 1048.5 702.267 1048.5 689.799Z" id="Oval-Copy-8" fill="#FFA200" fill-rule="evenodd" stroke="none" />
        <path d="M1143.81 689.799C1143.81 677.331 1153.92 667.224 1166.39 667.224C1178.86 667.224 1188.96 677.331 1188.96 689.799C1188.96 702.267 1178.86 712.375 1166.39 712.375C1153.92 712.375 1143.81 702.267 1143.81 689.799Z" id="Oval-Copy-9" fill="#FFA200" fill-rule="evenodd" stroke="none" />
        <path d="M1239.13 689.799C1239.13 677.331 1249.24 667.224 1261.71 667.224C1274.17 667.224 1284.28 677.331 1284.28 689.799C1284.28 702.267 1274.17 712.375 1261.71 712.375C1249.24 712.375 1239.13 702.267 1239.13 689.799Z" id="Oval-Copy-10" fill="#FFA200" fill-rule="evenodd" stroke="none" />
        <path d="M1334.45 689.799C1334.45 677.331 1344.56 667.224 1357.02 667.224C1369.49 667.224 1379.6 677.331 1379.6 689.799C1379.6 702.267 1369.49 712.375 1357.02 712.375C1344.56 712.375 1334.45 702.267 1334.45 689.799Z" id="Oval-Copy-11" fill="#FFA200" fill-rule="evenodd" stroke="none" />
        <path d="M1429.77 689.799C1429.77 677.331 1439.87 667.224 1452.34 667.224C1464.81 667.224 1474.92 677.331 1474.92 689.799C1474.92 702.267 1464.81 712.375 1452.34 712.375C1439.87 712.375 1429.77 702.267 1429.77 689.799Z" id="Oval-Copy-12" fill="#FFA200" fill-rule="evenodd" stroke="none" />
        <path d="M1525.08 689.799C1525.08 677.331 1535.19 667.224 1547.66 667.224C1560.13 667.224 1570.23 677.331 1570.23 689.799C1570.23 702.267 1560.13 712.375 1547.66 712.375C1535.19 712.375 1525.08 702.267 1525.08 689.799Z" id="Oval-Copy-13" fill="#FFA200" fill-rule="evenodd" stroke="none" />
        <path d="M1620.4 689.799C1620.4 677.331 1630.51 667.224 1642.98 667.224C1655.44 667.224 1665.55 677.331 1665.55 689.799C1665.55 702.267 1655.44 712.375 1642.98 712.375C1630.51 712.375 1620.4 702.267 1620.4 689.799Z" id="Oval-Copy-14" fill="#FFA200" fill-rule="evenodd" stroke="none" />
        <path d="M1715.72 689.799C1715.72 677.331 1725.83 667.224 1738.29 667.224C1750.76 667.224 1760.87 677.331 1760.87 689.799C1760.87 702.267 1750.76 712.375 1738.29 712.375C1725.83 712.375 1715.72 702.267 1715.72 689.799Z" id="Oval-Copy-15" fill="#FFA200" fill-rule="evenodd" stroke="none" />
        <path d="M190.635 689.799C190.635 677.331 200.743 667.224 213.211 667.224C225.679 667.224 235.786 677.331 235.786 689.799C235.786 702.267 225.679 712.375 213.211 712.375C200.743 712.375 190.635 702.267 190.635 689.799Z" id="Oval-Copy-32" fill="#FFA200" fill-rule="evenodd" stroke="none" />
        <path d="M0 689.799C0 677.331 10.1073 667.224 22.5753 667.224C35.0432 667.224 45.1505 677.331 45.1505 689.799C45.1505 702.267 35.0432 712.375 22.5753 712.375C10.1073 712.375 0 702.267 0 689.799Z" id="Oval-Copy-30" fill="#FFA200" fill-rule="evenodd" stroke="none" />
        <path d="M95.3176 689.799C95.3176 677.331 105.425 667.224 117.893 667.224C130.361 667.224 140.468 677.331 140.468 689.799C140.468 702.267 130.361 712.375 117.893 712.375C105.425 712.375 95.3176 702.267 95.3176 689.799Z" id="Oval-Copy-31" fill="#FFA200" fill-rule="evenodd" stroke="none" />
        <path d="M285.953 785.117C285.953 772.649 296.06 762.542 308.528 762.542C320.996 762.542 331.104 772.649 331.104 785.117C331.104 797.585 320.996 807.692 308.528 807.692C296.06 807.692 285.953 797.585 285.953 785.117Z" id="Oval" fill="#FFA200" fill-rule="evenodd" stroke="none" />
        <path d="M381.271 785.117C381.271 772.649 391.378 762.542 403.846 762.542C416.314 762.542 426.422 772.649 426.422 785.117C426.422 797.585 416.314 807.692 403.846 807.692C391.378 807.692 381.271 797.585 381.271 785.117Z" id="Oval-Copy" fill="#FFA200" fill-rule="evenodd" stroke="none" />
        <path d="M476.589 785.117C476.589 772.649 486.696 762.542 499.164 762.542C511.632 762.542 521.739 772.649 521.739 785.117C521.739 797.585 511.632 807.692 499.164 807.692C486.696 807.692 476.589 797.585 476.589 785.117Z" id="Oval-Copy-2" fill="#FFA200" fill-rule="evenodd" stroke="none" />
        <path d="M571.906 785.117C571.906 772.649 582.014 762.542 594.482 762.542C606.949 762.542 617.057 772.649 617.057 785.117C617.057 797.585 606.949 807.692 594.482 807.692C582.014 807.692 571.906 797.585 571.906 785.117Z" id="Oval-Copy-3" fill="#FFA200" fill-rule="evenodd" stroke="none" />
        <path d="M667.224 785.117C667.224 772.649 677.331 762.542 689.799 762.542C702.267 762.542 712.375 772.649 712.375 785.117C712.375 797.585 702.267 807.692 689.799 807.692C677.331 807.692 667.224 797.585 667.224 785.117Z" id="Oval-Copy-4" fill="#FFA200" fill-rule="evenodd" stroke="none" />
        <path d="M762.542 785.117C762.542 772.649 772.649 762.542 785.117 762.542C797.585 762.542 807.692 772.649 807.692 785.117C807.692 797.585 797.585 807.692 785.117 807.692C772.649 807.692 762.542 797.585 762.542 785.117Z" id="Oval-Copy-5" fill="#FFA200" fill-rule="evenodd" stroke="none" />
        <path d="M857.859 785.117C857.859 772.649 867.967 762.542 880.435 762.542C892.903 762.542 903.01 772.649 903.01 785.117C903.01 797.585 892.903 807.692 880.435 807.692C867.967 807.692 857.859 797.585 857.859 785.117Z" id="Oval-Copy-6" fill="#FFA200" fill-rule="evenodd" stroke="none" />
        <path d="M953.177 785.117C953.177 772.649 963.285 762.542 975.753 762.542C988.22 762.542 998.328 772.649 998.328 785.117C998.328 797.585 988.22 807.692 975.753 807.692C963.285 807.692 953.177 797.585 953.177 785.117Z" id="Oval-Copy-7" fill="#FFA200" fill-rule="evenodd" stroke="none" />
        <path d="M1048.5 785.117C1048.5 772.649 1058.6 762.542 1071.07 762.542C1083.54 762.542 1093.65 772.649 1093.65 785.117C1093.65 797.585 1083.54 807.692 1071.07 807.692C1058.6 807.692 1048.5 797.585 1048.5 785.117Z" id="Oval-Copy-8" fill="#FFA200" fill-rule="evenodd" stroke="none" />
        <path d="M1143.81 785.117C1143.81 772.649 1153.92 762.542 1166.39 762.542C1178.86 762.542 1188.96 772.649 1188.96 785.117C1188.96 797.585 1178.86 807.692 1166.39 807.692C1153.92 807.692 1143.81 797.585 1143.81 785.117Z" id="Oval-Copy-9" fill="#FFA200" fill-rule="evenodd" stroke="none" />
        <path d="M1239.13 785.117C1239.13 772.649 1249.24 762.542 1261.71 762.542C1274.17 762.542 1284.28 772.649 1284.28 785.117C1284.28 797.585 1274.17 807.692 1261.71 807.692C1249.24 807.692 1239.13 797.585 1239.13 785.117Z" id="Oval-Copy-10" fill="#FFA200" fill-rule="evenodd" stroke="none" />
        <path d="M1334.45 785.117C1334.45 772.649 1344.56 762.542 1357.02 762.542C1369.49 762.542 1379.6 772.649 1379.6 785.117C1379.6 797.585 1369.49 807.692 1357.02 807.692C1344.56 807.692 1334.45 797.585 1334.45 785.117Z" id="Oval-Copy-11" fill="#FFA200" fill-rule="evenodd" stroke="none" />
        <path d="M1429.77 785.117C1429.77 772.649 1439.87 762.542 1452.34 762.542C1464.81 762.542 1474.92 772.649 1474.92 785.117C1474.92 797.585 1464.81 807.692 1452.34 807.692C1439.87 807.692 1429.77 797.585 1429.77 785.117Z" id="Oval-Copy-12" fill="#FFA200" fill-rule="evenodd" stroke="none" />
        <path d="M1525.08 785.117C1525.08 772.649 1535.19 762.542 1547.66 762.542C1560.13 762.542 1570.23 772.649 1570.23 785.117C1570.23 797.585 1560.13 807.692 1547.66 807.692C1535.19 807.692 1525.08 797.585 1525.08 785.117Z" id="Oval-Copy-13" fill="#FFA200" fill-rule="evenodd" stroke="none" />
        <path d="M1620.4 785.117C1620.4 772.649 1630.51 762.542 1642.98 762.542C1655.44 762.542 1665.55 772.649 1665.55 785.117C1665.55 797.585 1655.44 807.692 1642.98 807.692C1630.51 807.692 1620.4 797.585 1620.4 785.117Z" id="Oval-Copy-14" fill="#FFA200" fill-rule="evenodd" stroke="none" />
        <path d="M1715.72 785.117C1715.72 772.649 1725.83 762.542 1738.29 762.542C1750.76 762.542 1760.87 772.649 1760.87 785.117C1760.87 797.585 1750.76 807.692 1738.29 807.692C1725.83 807.692 1715.72 797.585 1715.72 785.117Z" id="Oval-Copy-15" fill="#FFA200" fill-rule="evenodd" stroke="none" />
        <path d="M190.635 785.117C190.635 772.649 200.743 762.542 213.211 762.542C225.679 762.542 235.786 772.649 235.786 785.117C235.786 797.585 225.679 807.692 213.211 807.692C200.743 807.692 190.635 797.585 190.635 785.117Z" id="Oval-Copy-32" fill="#FFA200" fill-rule="evenodd" stroke="none" />
        <path d="M0 785.117C0 772.649 10.1073 762.542 22.5753 762.542C35.0432 762.542 45.1505 772.649 45.1505 785.117C45.1505 797.585 35.0432 807.692 22.5753 807.692C10.1073 807.692 0 797.585 0 785.117Z" id="Oval-Copy-30" fill="#FFA200" fill-rule="evenodd" stroke="none" />
        <path d="M95.3176 785.117C95.3176 772.649 105.425 762.542 117.893 762.542C130.361 762.542 140.468 772.649 140.468 785.117C140.468 797.585 130.361 807.692 117.893 807.692C105.425 807.692 95.3176 797.585 95.3176 785.117Z" id="Oval-Copy-31" fill="#FFA200" fill-rule="evenodd" stroke="none" />
        <path d="M285.953 880.435C285.953 867.967 296.06 857.859 308.528 857.859C320.996 857.859 331.104 867.967 331.104 880.435C331.104 892.903 320.996 903.01 308.528 903.01C296.06 903.01 285.953 892.903 285.953 880.435Z" id="Oval" fill="#FFA200" fill-rule="evenodd" stroke="none" />
        <path d="M381.271 880.435C381.271 867.967 391.378 857.859 403.846 857.859C416.314 857.859 426.422 867.967 426.422 880.435C426.422 892.903 416.314 903.01 403.846 903.01C391.378 903.01 381.271 892.903 381.271 880.435Z" id="Oval-Copy" fill="#FFA200" fill-rule="evenodd" stroke="none" />
        <path d="M476.589 880.435C476.589 867.967 486.696 857.859 499.164 857.859C511.632 857.859 521.739 867.967 521.739 880.435C521.739 892.903 511.632 903.01 499.164 903.01C486.696 903.01 476.589 892.903 476.589 880.435Z" id="Oval-Copy-2" fill="#FFA200" fill-rule="evenodd" stroke="none" />
        <path d="M571.906 880.435C571.906 867.967 582.014 857.859 594.482 857.859C606.949 857.859 617.057 867.967 617.057 880.435C617.057 892.903 606.949 903.01 594.482 903.01C582.014 903.01 571.906 892.903 571.906 880.435Z" id="Oval-Copy-3" fill="#FFA200" fill-rule="evenodd" stroke="none" />
        <path d="M667.224 880.435C667.224 867.967 677.331 857.859 689.799 857.859C702.267 857.859 712.375 867.967 712.375 880.435C712.375 892.903 702.267 903.01 689.799 903.01C677.331 903.01 667.224 892.903 667.224 880.435Z" id="Oval-Copy-4" fill="#FFA200" fill-rule="evenodd" stroke="none" />
        <path d="M762.542 880.435C762.542 867.967 772.649 857.859 785.117 857.859C797.585 857.859 807.692 867.967 807.692 880.435C807.692 892.903 797.585 903.01 785.117 903.01C772.649 903.01 762.542 892.903 762.542 880.435Z" id="Oval-Copy-5" fill="#FFA200" fill-rule="evenodd" stroke="none" />
        <path d="M857.859 880.435C857.859 867.967 867.967 857.859 880.435 857.859C892.903 857.859 903.01 867.967 903.01 880.435C903.01 892.903 892.903 903.01 880.435 903.01C867.967 903.01 857.859 892.903 857.859 880.435Z" id="Oval-Copy-6" fill="#FFA200" fill-rule="evenodd" stroke="none" />
        <path d="M953.177 880.435C953.177 867.967 963.285 857.859 975.753 857.859C988.22 857.859 998.328 867.967 998.328 880.435C998.328 892.903 988.22 903.01 975.753 903.01C963.285 903.01 953.177 892.903 953.177 880.435Z" id="Oval-Copy-7" fill="#FFA200" fill-rule="evenodd" stroke="none" />
        <path d="M1048.5 880.435C1048.5 867.967 1058.6 857.859 1071.07 857.859C1083.54 857.859 1093.65 867.967 1093.65 880.435C1093.65 892.903 1083.54 903.01 1071.07 903.01C1058.6 903.01 1048.5 892.903 1048.5 880.435Z" id="Oval-Copy-8" fill="#FFA200" fill-rule="evenodd" stroke="none" />
        <path d="M1143.81 880.435C1143.81 867.967 1153.92 857.859 1166.39 857.859C1178.86 857.859 1188.96 867.967 1188.96 880.435C1188.96 892.903 1178.86 903.01 1166.39 903.01C1153.92 903.01 1143.81 892.903 1143.81 880.435Z" id="Oval-Copy-9" fill="#FFA200" fill-rule="evenodd" stroke="none" />
        <path d="M1239.13 880.435C1239.13 867.967 1249.24 857.859 1261.71 857.859C1274.17 857.859 1284.28 867.967 1284.28 880.435C1284.28 892.903 1274.17 903.01 1261.71 903.01C1249.24 903.01 1239.13 892.903 1239.13 880.435Z" id="Oval-Copy-10" fill="#FFA200" fill-rule="evenodd" stroke="none" />
        <path d="M1334.45 880.435C1334.45 867.967 1344.56 857.859 1357.02 857.859C1369.49 857.859 1379.6 867.967 1379.6 880.435C1379.6 892.903 1369.49 903.01 1357.02 903.01C1344.56 903.01 1334.45 892.903 1334.45 880.435Z" id="Oval-Copy-11" fill="#FFA200" fill-rule="evenodd" stroke="none" />
        <path d="M1429.77 880.435C1429.77 867.967 1439.87 857.859 1452.34 857.859C1464.81 857.859 1474.92 867.967 1474.92 880.435C1474.92 892.903 1464.81 903.01 1452.34 903.01C1439.87 903.01 1429.77 892.903 1429.77 880.435Z" id="Oval-Copy-12" fill="#FFA200" fill-rule="evenodd" stroke="none" />
        <path d="M1525.08 880.435C1525.08 867.967 1535.19 857.859 1547.66 857.859C1560.13 857.859 1570.23 867.967 1570.23 880.435C1570.23 892.903 1560.13 903.01 1547.66 903.01C1535.19 903.01 1525.08 892.903 1525.08 880.435Z" id="Oval-Copy-13" fill="#FFA200" fill-rule="evenodd" stroke="none" />
        <path d="M1620.4 880.435C1620.4 867.967 1630.51 857.859 1642.98 857.859C1655.44 857.859 1665.55 867.967 1665.55 880.435C1665.55 892.903 1655.44 903.01 1642.98 903.01C1630.51 903.01 1620.4 892.903 1620.4 880.435Z" id="Oval-Copy-14" fill="#FFA200" fill-rule="evenodd" stroke="none" />
        <path d="M1715.72 880.435C1715.72 867.967 1725.83 857.859 1738.29 857.859C1750.76 857.859 1760.87 867.967 1760.87 880.435C1760.87 892.903 1750.76 903.01 1738.29 903.01C1725.83 903.01 1715.72 892.903 1715.72 880.435Z" id="Oval-Copy-15" fill="#FFA200" fill-rule="evenodd" stroke="none" />
        <path d="M190.635 880.435C190.635 867.967 200.743 857.859 213.211 857.859C225.679 857.859 235.786 867.967 235.786 880.435C235.786 892.903 225.679 903.01 213.211 903.01C200.743 903.01 190.635 892.903 190.635 880.435Z" id="Oval-Copy-32" fill="#FFA200" fill-rule="evenodd" stroke="none" />
        <path d="M0 880.435C0 867.967 10.1073 857.859 22.5753 857.859C35.0432 857.859 45.1505 867.967 45.1505 880.435C45.1505 892.903 35.0432 903.01 22.5753 903.01C10.1073 903.01 0 892.903 0 880.435Z" id="Oval-Copy-30" fill="#FFA200" fill-rule="evenodd" stroke="none" />
        <path d="M95.3176 880.435C95.3176 867.967 105.425 857.859 117.893 857.859C130.361 857.859 140.468 867.967 140.468 880.435C140.468 892.903 130.361 903.01 117.893 903.01C105.425 903.01 95.3176 892.903 95.3176 880.435Z" id="Oval-Copy-31" fill="#FFA200" fill-rule="evenodd" stroke="none" />
        <path d="M285.953 975.753C285.953 963.285 296.06 953.177 308.528 953.177C320.996 953.177 331.104 963.285 331.104 975.753C331.104 988.22 320.996 998.328 308.528 998.328C296.06 998.328 285.953 988.22 285.953 975.753Z" id="Oval" fill="#FFA200" fill-rule="evenodd" stroke="none" />
        <path d="M381.271 975.753C381.271 963.285 391.378 953.177 403.846 953.177C416.314 953.177 426.422 963.285 426.422 975.753C426.422 988.22 416.314 998.328 403.846 998.328C391.378 998.328 381.271 988.22 381.271 975.753Z" id="Oval-Copy" fill="#FFA200" fill-rule="evenodd" stroke="none" />
        <path d="M476.589 975.753C476.589 963.285 486.696 953.177 499.164 953.177C511.632 953.177 521.739 963.285 521.739 975.753C521.739 988.22 511.632 998.328 499.164 998.328C486.696 998.328 476.589 988.22 476.589 975.753Z" id="Oval-Copy-2" fill="#FFA200" fill-rule="evenodd" stroke="none" />
        <path d="M571.906 975.753C571.906 963.285 582.014 953.177 594.482 953.177C606.949 953.177 617.057 963.285 617.057 975.753C617.057 988.22 606.949 998.328 594.482 998.328C582.014 998.328 571.906 988.22 571.906 975.753Z" id="Oval-Copy-3" fill="#FFA200" fill-rule="evenodd" stroke="none" />
        <path d="M667.224 975.753C667.224 963.285 677.331 953.177 689.799 953.177C702.267 953.177 712.375 963.285 712.375 975.753C712.375 988.22 702.267 998.328 689.799 998.328C677.331 998.328 667.224 988.22 667.224 975.753Z" id="Oval-Copy-4" fill="#FFA200" fill-rule="evenodd" stroke="none" />
        <path d="M762.542 975.753C762.542 963.285 772.649 953.177 785.117 953.177C797.585 953.177 807.692 963.285 807.692 975.753C807.692 988.22 797.585 998.328 785.117 998.328C772.649 998.328 762.542 988.22 762.542 975.753Z" id="Oval-Copy-5" fill="#FFA200" fill-rule="evenodd" stroke="none" />
        <path d="M857.859 975.753C857.859 963.285 867.967 953.177 880.435 953.177C892.903 953.177 903.01 963.285 903.01 975.753C903.01 988.22 892.903 998.328 880.435 998.328C867.967 998.328 857.859 988.22 857.859 975.753Z" id="Oval-Copy-6" fill="#FFA200" fill-rule="evenodd" stroke="none" />
        <path d="M953.177 975.753C953.177 963.285 963.285 953.177 975.753 953.177C988.22 953.177 998.328 963.285 998.328 975.753C998.328 988.22 988.22 998.328 975.753 998.328C963.285 998.328 953.177 988.22 953.177 975.753Z" id="Oval-Copy-7" fill="#FFA200" fill-rule="evenodd" stroke="none" />
        <path d="M1048.5 975.753C1048.5 963.285 1058.6 953.177 1071.07 953.177C1083.54 953.177 1093.65 963.285 1093.65 975.753C1093.65 988.22 1083.54 998.328 1071.07 998.328C1058.6 998.328 1048.5 988.22 1048.5 975.753Z" id="Oval-Copy-8" fill="#FFA200" fill-rule="evenodd" stroke="none" />
        <path d="M1143.81 975.753C1143.81 963.285 1153.92 953.177 1166.39 953.177C1178.86 953.177 1188.96 963.285 1188.96 975.753C1188.96 988.22 1178.86 998.328 1166.39 998.328C1153.92 998.328 1143.81 988.22 1143.81 975.753Z" id="Oval-Copy-9" fill="#FFA200" fill-rule="evenodd" stroke="none" />
        <path d="M1239.13 975.753C1239.13 963.285 1249.24 953.177 1261.71 953.177C1274.17 953.177 1284.28 963.285 1284.28 975.753C1284.28 988.22 1274.17 998.328 1261.71 998.328C1249.24 998.328 1239.13 988.22 1239.13 975.753Z" id="Oval-Copy-10" fill="#FFA200" fill-rule="evenodd" stroke="none" />
        <path d="M1334.45 975.753C1334.45 963.285 1344.56 953.177 1357.02 953.177C1369.49 953.177 1379.6 963.285 1379.6 975.753C1379.6 988.22 1369.49 998.328 1357.02 998.328C1344.56 998.328 1334.45 988.22 1334.45 975.753Z" id="Oval-Copy-11" fill="#FFA200" fill-rule="evenodd" stroke="none" />
        <path d="M1429.77 975.753C1429.77 963.285 1439.87 953.177 1452.34 953.177C1464.81 953.177 1474.92 963.285 1474.92 975.753C1474.92 988.22 1464.81 998.328 1452.34 998.328C1439.87 998.328 1429.77 988.22 1429.77 975.753Z" id="Oval-Copy-12" fill="#FFA200" fill-rule="evenodd" stroke="none" />
        <path d="M1525.08 975.753C1525.08 963.285 1535.19 953.177 1547.66 953.177C1560.13 953.177 1570.23 963.285 1570.23 975.753C1570.23 988.22 1560.13 998.328 1547.66 998.328C1535.19 998.328 1525.08 988.22 1525.08 975.753Z" id="Oval-Copy-13" fill="#FFA200" fill-rule="evenodd" stroke="none" />
        <path d="M1620.4 975.753C1620.4 963.285 1630.51 953.177 1642.98 953.177C1655.44 953.177 1665.55 963.285 1665.55 975.753C1665.55 988.22 1655.44 998.328 1642.98 998.328C1630.51 998.328 1620.4 988.22 1620.4 975.753Z" id="Oval-Copy-14" fill="#FFA200" fill-rule="evenodd" stroke="none" />
        <path d="M1715.72 975.753C1715.72 963.285 1725.83 953.177 1738.29 953.177C1750.76 953.177 1760.87 963.285 1760.87 975.753C1760.87 988.22 1750.76 998.328 1738.29 998.328C1725.83 998.328 1715.72 988.22 1715.72 975.753Z" id="Oval-Copy-15" fill="#FFA200" fill-rule="evenodd" stroke="none" />
        <path d="M190.635 975.753C190.635 963.285 200.743 953.177 213.211 953.177C225.679 953.177 235.786 963.285 235.786 975.753C235.786 988.22 225.679 998.328 213.211 998.328C200.743 998.328 190.635 988.22 190.635 975.753Z" id="Oval-Copy-32" fill="#FFA200" fill-rule="evenodd" stroke="none" />
        <path d="M0 975.753C0 963.285 10.1073 953.177 22.5753 953.177C35.0432 953.177 45.1505 963.285 45.1505 975.753C45.1505 988.22 35.0432 998.328 22.5753 998.328C10.1073 998.328 0 988.22 0 975.753Z" id="Oval-Copy-30" fill="#FFA200" fill-rule="evenodd" stroke="none" />
        <path d="M95.3176 975.753C95.3176 963.285 105.425 953.177 117.893 953.177C130.361 953.177 140.468 963.285 140.468 975.753C140.468 988.22 130.361 998.328 117.893 998.328C105.425 998.328 95.3176 988.22 95.3176 975.753Z" id="Oval-Copy-31" fill="#FFA200" fill-rule="evenodd" stroke="none" />
        <path d="M285.953 1071.07C285.953 1058.6 296.06 1048.49 308.528 1048.49C320.996 1048.49 331.104 1058.6 331.104 1071.07C331.104 1083.54 320.996 1093.65 308.528 1093.65C296.06 1093.65 285.953 1083.54 285.953 1071.07Z" id="Oval" fill="#FFA200" fill-rule="evenodd" stroke="none" />
        <path d="M381.271 1071.07C381.271 1058.6 391.378 1048.49 403.846 1048.49C416.314 1048.49 426.422 1058.6 426.422 1071.07C426.422 1083.54 416.314 1093.65 403.846 1093.65C391.378 1093.65 381.271 1083.54 381.271 1071.07Z" id="Oval-Copy" fill="#FFA200" fill-rule="evenodd" stroke="none" />
        <path d="M476.589 1071.07C476.589 1058.6 486.696 1048.49 499.164 1048.49C511.632 1048.49 521.739 1058.6 521.739 1071.07C521.739 1083.54 511.632 1093.65 499.164 1093.65C486.696 1093.65 476.589 1083.54 476.589 1071.07Z" id="Oval-Copy-2" fill="#FFA200" fill-rule="evenodd" stroke="none" />
        <path d="M571.906 1071.07C571.906 1058.6 582.014 1048.49 594.482 1048.49C606.949 1048.49 617.057 1058.6 617.057 1071.07C617.057 1083.54 606.949 1093.65 594.482 1093.65C582.014 1093.65 571.906 1083.54 571.906 1071.07Z" id="Oval-Copy-3" fill="#FFA200" fill-rule="evenodd" stroke="none" />
        <path d="M667.224 1071.07C667.224 1058.6 677.331 1048.49 689.799 1048.49C702.267 1048.49 712.375 1058.6 712.375 1071.07C712.375 1083.54 702.267 1093.65 689.799 1093.65C677.331 1093.65 667.224 1083.54 667.224 1071.07Z" id="Oval-Copy-4" fill="#FFA200" fill-rule="evenodd" stroke="none" />
        <path d="M762.542 1071.07C762.542 1058.6 772.649 1048.49 785.117 1048.49C797.585 1048.49 807.692 1058.6 807.692 1071.07C807.692 1083.54 797.585 1093.65 785.117 1093.65C772.649 1093.65 762.542 1083.54 762.542 1071.07Z" id="Oval-Copy-5" fill="#FFA200" fill-rule="evenodd" stroke="none" />
        <path d="M857.859 1071.07C857.859 1058.6 867.967 1048.49 880.435 1048.49C892.903 1048.49 903.01 1058.6 903.01 1071.07C903.01 1083.54 892.903 1093.65 880.435 1093.65C867.967 1093.65 857.859 1083.54 857.859 1071.07Z" id="Oval-Copy-6" fill="#FFA200" fill-rule="evenodd" stroke="none" />
        <path d="M953.177 1071.07C953.177 1058.6 963.285 1048.49 975.753 1048.49C988.22 1048.49 998.328 1058.6 998.328 1071.07C998.328 1083.54 988.22 1093.65 975.753 1093.65C963.285 1093.65 953.177 1083.54 953.177 1071.07Z" id="Oval-Copy-7" fill="#FFA200" fill-rule="evenodd" stroke="none" />
        <path d="M1048.5 1071.07C1048.5 1058.6 1058.6 1048.49 1071.07 1048.49C1083.54 1048.49 1093.65 1058.6 1093.65 1071.07C1093.65 1083.54 1083.54 1093.65 1071.07 1093.65C1058.6 1093.65 1048.5 1083.54 1048.5 1071.07Z" id="Oval-Copy-8" fill="#FFA200" fill-rule="evenodd" stroke="none" />
        <path d="M1143.81 1071.07C1143.81 1058.6 1153.92 1048.49 1166.39 1048.49C1178.86 1048.49 1188.96 1058.6 1188.96 1071.07C1188.96 1083.54 1178.86 1093.65 1166.39 1093.65C1153.92 1093.65 1143.81 1083.54 1143.81 1071.07Z" id="Oval-Copy-9" fill="#FFA200" fill-rule="evenodd" stroke="none" />
        <path d="M1239.13 1071.07C1239.13 1058.6 1249.24 1048.49 1261.71 1048.49C1274.17 1048.49 1284.28 1058.6 1284.28 1071.07C1284.28 1083.54 1274.17 1093.65 1261.71 1093.65C1249.24 1093.65 1239.13 1083.54 1239.13 1071.07Z" id="Oval-Copy-10" fill="#FFA200" fill-rule="evenodd" stroke="none" />
        <path d="M1334.45 1071.07C1334.45 1058.6 1344.56 1048.49 1357.02 1048.49C1369.49 1048.49 1379.6 1058.6 1379.6 1071.07C1379.6 1083.54 1369.49 1093.65 1357.02 1093.65C1344.56 1093.65 1334.45 1083.54 1334.45 1071.07Z" id="Oval-Copy-11" fill="#FFA200" fill-rule="evenodd" stroke="none" />
        <path d="M1429.77 1071.07C1429.77 1058.6 1439.87 1048.49 1452.34 1048.49C1464.81 1048.49 1474.92 1058.6 1474.92 1071.07C1474.92 1083.54 1464.81 1093.65 1452.34 1093.65C1439.87 1093.65 1429.77 1083.54 1429.77 1071.07Z" id="Oval-Copy-12" fill="#FFA200" fill-rule="evenodd" stroke="none" />
        <path d="M1525.08 1071.07C1525.08 1058.6 1535.19 1048.49 1547.66 1048.49C1560.13 1048.49 1570.23 1058.6 1570.23 1071.07C1570.23 1083.54 1560.13 1093.65 1547.66 1093.65C1535.19 1093.65 1525.08 1083.54 1525.08 1071.07Z" id="Oval-Copy-13" fill="#FFA200" fill-rule="evenodd" stroke="none" />
        <path d="M1620.4 1071.07C1620.4 1058.6 1630.51 1048.49 1642.98 1048.49C1655.44 1048.49 1665.55 1058.6 1665.55 1071.07C1665.55 1083.54 1655.44 1093.65 1642.98 1093.65C1630.51 1093.65 1620.4 1083.54 1620.4 1071.07Z" id="Oval-Copy-14" fill="#FFA200" fill-rule="evenodd" stroke="none" />
        <path d="M1715.72 1071.07C1715.72 1058.6 1725.83 1048.49 1738.29 1048.49C1750.76 1048.49 1760.87 1058.6 1760.87 1071.07C1760.87 1083.54 1750.76 1093.65 1738.29 1093.65C1725.83 1093.65 1715.72 1083.54 1715.72 1071.07Z" id="Oval-Copy-15" fill="#FFA200" fill-rule="evenodd" stroke="none" />
        <path d="M190.635 1071.07C190.635 1058.6 200.743 1048.49 213.211 1048.49C225.679 1048.49 235.786 1058.6 235.786 1071.07C235.786 1083.54 225.679 1093.65 213.211 1093.65C200.743 1093.65 190.635 1083.54 190.635 1071.07Z" id="Oval-Copy-32" fill="#FFA200" fill-rule="evenodd" stroke="none" />
        <path d="M0 1071.07C0 1058.6 10.1073 1048.49 22.5753 1048.49C35.0432 1048.49 45.1505 1058.6 45.1505 1071.07C45.1505 1083.54 35.0432 1093.65 22.5753 1093.65C10.1073 1093.65 0 1083.54 0 1071.07Z" id="Oval-Copy-30" fill="#FFA200" fill-rule="evenodd" stroke="none" />
        <path d="M95.3176 1071.07C95.3176 1058.6 105.425 1048.49 117.893 1048.49C130.361 1048.49 140.468 1058.6 140.468 1071.07C140.468 1083.54 130.361 1093.65 117.893 1093.65C105.425 1093.65 95.3176 1083.54 95.3176 1071.07Z" id="Oval-Copy-31" fill="#FFA200" fill-rule="evenodd" stroke="none" />
        <path d="M285.953 1166.39C285.953 1153.92 296.06 1143.81 308.528 1143.81C320.996 1143.81 331.104 1153.92 331.104 1166.39C331.104 1178.86 320.996 1188.96 308.528 1188.96C296.06 1188.96 285.953 1178.86 285.953 1166.39Z" id="Oval" fill="#FFA200" fill-rule="evenodd" stroke="none" />
        <path d="M381.271 1166.39C381.271 1153.92 391.378 1143.81 403.846 1143.81C416.314 1143.81 426.422 1153.92 426.422 1166.39C426.422 1178.86 416.314 1188.96 403.846 1188.96C391.378 1188.96 381.271 1178.86 381.271 1166.39Z" id="Oval-Copy" fill="#FFA200" fill-rule="evenodd" stroke="none" />
        <path d="M476.589 1166.39C476.589 1153.92 486.696 1143.81 499.164 1143.81C511.632 1143.81 521.739 1153.92 521.739 1166.39C521.739 1178.86 511.632 1188.96 499.164 1188.96C486.696 1188.96 476.589 1178.86 476.589 1166.39Z" id="Oval-Copy-2" fill="#FFA200" fill-rule="evenodd" stroke="none" />
        <path d="M571.906 1166.39C571.906 1153.92 582.014 1143.81 594.482 1143.81C606.949 1143.81 617.057 1153.92 617.057 1166.39C617.057 1178.86 606.949 1188.96 594.482 1188.96C582.014 1188.96 571.906 1178.86 571.906 1166.39Z" id="Oval-Copy-3" fill="#FFA200" fill-rule="evenodd" stroke="none" />
        <path d="M667.224 1166.39C667.224 1153.92 677.331 1143.81 689.799 1143.81C702.267 1143.81 712.375 1153.92 712.375 1166.39C712.375 1178.86 702.267 1188.96 689.799 1188.96C677.331 1188.96 667.224 1178.86 667.224 1166.39Z" id="Oval-Copy-4" fill="#FFA200" fill-rule="evenodd" stroke="none" />
        <path d="M762.542 1166.39C762.542 1153.92 772.649 1143.81 785.117 1143.81C797.585 1143.81 807.692 1153.92 807.692 1166.39C807.692 1178.86 797.585 1188.96 785.117 1188.96C772.649 1188.96 762.542 1178.86 762.542 1166.39Z" id="Oval-Copy-5" fill="#FFA200" fill-rule="evenodd" stroke="none" />
        <path d="M857.859 1166.39C857.859 1153.92 867.967 1143.81 880.435 1143.81C892.903 1143.81 903.01 1153.92 903.01 1166.39C903.01 1178.86 892.903 1188.96 880.435 1188.96C867.967 1188.96 857.859 1178.86 857.859 1166.39Z" id="Oval-Copy-6" fill="#FFA200" fill-rule="evenodd" stroke="none" />
        <path d="M953.177 1166.39C953.177 1153.92 963.285 1143.81 975.753 1143.81C988.22 1143.81 998.328 1153.92 998.328 1166.39C998.328 1178.86 988.22 1188.96 975.753 1188.96C963.285 1188.96 953.177 1178.86 953.177 1166.39Z" id="Oval-Copy-7" fill="#FFA200" fill-rule="evenodd" stroke="none" />
        <path d="M1048.5 1166.39C1048.5 1153.92 1058.6 1143.81 1071.07 1143.81C1083.54 1143.81 1093.65 1153.92 1093.65 1166.39C1093.65 1178.86 1083.54 1188.96 1071.07 1188.96C1058.6 1188.96 1048.5 1178.86 1048.5 1166.39Z" id="Oval-Copy-8" fill="#FFA200" fill-rule="evenodd" stroke="none" />
        <path d="M1143.81 1166.39C1143.81 1153.92 1153.92 1143.81 1166.39 1143.81C1178.86 1143.81 1188.96 1153.92 1188.96 1166.39C1188.96 1178.86 1178.86 1188.96 1166.39 1188.96C1153.92 1188.96 1143.81 1178.86 1143.81 1166.39Z" id="Oval-Copy-9" fill="#FFA200" fill-rule="evenodd" stroke="none" />
        <path d="M1239.13 1166.39C1239.13 1153.92 1249.24 1143.81 1261.71 1143.81C1274.17 1143.81 1284.28 1153.92 1284.28 1166.39C1284.28 1178.86 1274.17 1188.96 1261.71 1188.96C1249.24 1188.96 1239.13 1178.86 1239.13 1166.39Z" id="Oval-Copy-10" fill="#FFA200" fill-rule="evenodd" stroke="none" />
        <path d="M1334.45 1166.39C1334.45 1153.92 1344.56 1143.81 1357.02 1143.81C1369.49 1143.81 1379.6 1153.92 1379.6 1166.39C1379.6 1178.86 1369.49 1188.96 1357.02 1188.96C1344.56 1188.96 1334.45 1178.86 1334.45 1166.39Z" id="Oval-Copy-11" fill="#FFA200" fill-rule="evenodd" stroke="none" />
        <path d="M1429.77 1166.39C1429.77 1153.92 1439.87 1143.81 1452.34 1143.81C1464.81 1143.81 1474.92 1153.92 1474.92 1166.39C1474.92 1178.86 1464.81 1188.96 1452.34 1188.96C1439.87 1188.96 1429.77 1178.86 1429.77 1166.39Z" id="Oval-Copy-12" fill="#FFA200" fill-rule="evenodd" stroke="none" />
        <path d="M1525.08 1166.39C1525.08 1153.92 1535.19 1143.81 1547.66 1143.81C1560.13 1143.81 1570.23 1153.92 1570.23 1166.39C1570.23 1178.86 1560.13 1188.96 1547.66 1188.96C1535.19 1188.96 1525.08 1178.86 1525.08 1166.39Z" id="Oval-Copy-13" fill="#FFA200" fill-rule="evenodd" stroke="none" />
        <path d="M1620.4 1166.39C1620.4 1153.92 1630.51 1143.81 1642.98 1143.81C1655.44 1143.81 1665.55 1153.92 1665.55 1166.39C1665.55 1178.86 1655.44 1188.96 1642.98 1188.96C1630.51 1188.96 1620.4 1178.86 1620.4 1166.39Z" id="Oval-Copy-14" fill="#FFA200" fill-rule="evenodd" stroke="none" />
        <path d="M1715.72 1166.39C1715.72 1153.92 1725.83 1143.81 1738.29 1143.81C1750.76 1143.81 1760.87 1153.92 1760.87 1166.39C1760.87 1178.86 1750.76 1188.96 1738.29 1188.96C1725.83 1188.96 1715.72 1178.86 1715.72 1166.39Z" id="Oval-Copy-15" fill="#FFA200" fill-rule="evenodd" stroke="none" />
        <path d="M190.635 1166.39C190.635 1153.92 200.743 1143.81 213.211 1143.81C225.679 1143.81 235.786 1153.92 235.786 1166.39C235.786 1178.86 225.679 1188.96 213.211 1188.96C200.743 1188.96 190.635 1178.86 190.635 1166.39Z" id="Oval-Copy-32" fill="#FFA200" fill-rule="evenodd" stroke="none" />
        <path d="M0 1166.39C0 1153.92 10.1073 1143.81 22.5753 1143.81C35.0432 1143.81 45.1505 1153.92 45.1505 1166.39C45.1505 1178.86 35.0432 1188.96 22.5753 1188.96C10.1073 1188.96 0 1178.86 0 1166.39Z" id="Oval-Copy-30" fill="#FFA200" fill-rule="evenodd" stroke="none" />
        <path d="M95.3176 1166.39C95.3176 1153.92 105.425 1143.81 117.893 1143.81C130.361 1143.81 140.468 1153.92 140.468 1166.39C140.468 1178.86 130.361 1188.96 117.893 1188.96C105.425 1188.96 95.3176 1178.86 95.3176 1166.39Z" id="Oval-Copy-31" fill="#FFA200" fill-rule="evenodd" stroke="none" />
      </g>
    </g>
  </g>
</svg>