<?xml version="1.0" encoding="utf-8"?>
<svg width="477.16992px" height="477.16992px" viewBox="0 0 477.16992 477.16992" version="1.1" xmlns:xlink="http://www.w3.org/1999/xlink" xmlns="http://www.w3.org/2000/svg">
  <g id="Group-4">
    <path d="M0 0L477.17 0L477.17 477.17L0 477.17L0 0Z" id="Rectangle" fill="#000000" fill-rule="evenodd" stroke="none" />
    <g id="Group-3" transform="translate(25.374023 25.374023)">
      <path d="M285.953 22.5753C285.953 10.1073 296.06 0 308.528 0C320.996 0 331.104 10.1073 331.104 22.5753C331.104 35.0432 320.996 45.1505 308.528 45.1505C296.06 45.1505 285.953 35.0432 285.953 22.5753Z" id="Oval-Copy-33" fill="#FFA200" fill-rule="evenodd" stroke="none" />
      <path d="M381.271 22.5753C381.271 10.1073 391.378 0 403.846 0C416.314 0 426.422 10.1073 426.422 22.5753C426.422 35.0432 416.314 45.1505 403.846 45.1505C391.378 45.1505 381.271 35.0432 381.271 22.5753Z" id="Oval-Copy-34" fill="#FFA200" fill-rule="evenodd" stroke="none" />
      <path d="M190.636 22.5753C190.636 10.1073 200.743 0 213.211 0C225.679 0 235.786 10.1073 235.786 22.5753C235.786 35.0432 225.679 45.1505 213.211 45.1505C200.743 45.1505 190.636 35.0432 190.636 22.5753Z" id="Oval-Copy-35" fill="#FFA200" fill-rule="evenodd" stroke="none" />
      <path d="M0 22.5753C0 10.1073 10.1073 0 22.5753 0C35.0432 0 45.1505 10.1073 45.1505 22.5753C45.1505 35.0432 35.0432 45.1505 22.5753 45.1505C10.1073 45.1505 0 35.0432 0 22.5753Z" id="Oval-Copy-36" fill="#FFA200" fill-rule="evenodd" stroke="none" />
      <path d="M95.3174 22.5753C95.3174 10.1073 105.425 0 117.893 0C130.361 0 140.468 10.1073 140.468 22.5753C140.468 35.0432 130.361 45.1505 117.893 45.1505C105.425 45.1505 95.3174 35.0432 95.3174 22.5753Z" id="Oval-Copy-37" fill="#FFA200" fill-rule="evenodd" stroke="none" />
      <path d="M285.953 117.893C285.953 105.425 296.06 95.3179 308.528 95.3179C320.996 95.3179 331.104 105.425 331.104 117.893C331.104 130.361 320.996 140.468 308.528 140.468C296.06 140.468 285.953 130.361 285.953 117.893Z" id="Oval-Copy-38" fill="#FFA200" fill-rule="evenodd" stroke="none" />
      <path d="M381.271 117.893C381.271 105.425 391.378 95.3179 403.846 95.3179C416.314 95.3179 426.422 105.425 426.422 117.893C426.422 130.361 416.314 140.468 403.846 140.468C391.378 140.468 381.271 130.361 381.271 117.893Z" id="Oval-Copy-39" fill="#FFA200" fill-rule="evenodd" stroke="none" />
      <path d="M190.636 117.893C190.636 105.425 200.743 95.3179 213.211 95.3179C225.679 95.3179 235.786 105.425 235.786 117.893C235.786 130.361 225.679 140.468 213.211 140.468C200.743 140.468 190.636 130.361 190.636 117.893Z" id="Oval-Copy-40" fill="#FFA200" fill-rule="evenodd" stroke="none" />
      <path d="M0 117.893C0 105.425 10.1073 95.3179 22.5753 95.3179C35.0432 95.3179 45.1505 105.425 45.1505 117.893C45.1505 130.361 35.0432 140.468 22.5753 140.468C10.1073 140.468 0 130.361 0 117.893Z" id="Oval-Copy-41" fill="#FFA200" fill-rule="evenodd" stroke="none" />
      <path d="M95.3174 117.893C95.3174 105.425 105.425 95.3179 117.893 95.3179C130.361 95.3179 140.468 105.425 140.468 117.893C140.468 130.361 130.361 140.468 117.893 140.468C105.425 140.468 95.3174 130.361 95.3174 117.893Z" id="Oval-Copy-42" fill="#FFA200" fill-rule="evenodd" stroke="none" />
      <path d="M285.953 213.211C285.953 200.743 296.06 190.635 308.528 190.635C320.996 190.635 331.104 200.743 331.104 213.211C331.104 225.679 320.996 235.786 308.528 235.786C296.06 235.786 285.953 225.679 285.953 213.211Z" id="Oval-Copy-43" fill="#FFA200" fill-rule="evenodd" stroke="none" />
      <path d="M381.271 213.211C381.271 200.743 391.378 190.635 403.846 190.635C416.314 190.635 426.422 200.743 426.422 213.211C426.422 225.679 416.314 235.786 403.846 235.786C391.378 235.786 381.271 225.679 381.271 213.211Z" id="Oval-Copy-44" fill="#FFA200" fill-rule="evenodd" stroke="none" />
      <path d="M190.636 213.211C190.636 200.743 200.743 190.635 213.211 190.635C225.679 190.635 235.786 200.743 235.786 213.211C235.786 225.679 225.679 235.786 213.211 235.786C200.743 235.786 190.636 225.679 190.636 213.211Z" id="Oval-Copy-45" fill="#FFA200" fill-rule="evenodd" stroke="none" />
      <path d="M0 213.211C0 200.743 10.1073 190.635 22.5753 190.635C35.0432 190.635 45.1505 200.743 45.1505 213.211C45.1505 225.679 35.0432 235.786 22.5753 235.786C10.1073 235.786 0 225.679 0 213.211Z" id="Oval-Copy-46" fill="#FFA200" fill-rule="evenodd" stroke="none" />
      <path d="M95.3174 213.211C95.3174 200.743 105.425 190.635 117.893 190.635C130.361 190.635 140.468 200.743 140.468 213.211C140.468 225.679 130.361 235.786 117.893 235.786C105.425 235.786 95.3174 225.679 95.3174 213.211Z" id="Oval-Copy-47" fill="#FFA200" fill-rule="evenodd" stroke="none" />
      <path d="M285.953 308.528C285.953 296.06 296.06 285.953 308.528 285.953C320.996 285.953 331.104 296.06 331.104 308.528C331.104 320.996 320.996 331.104 308.528 331.104C296.06 331.104 285.953 320.996 285.953 308.528Z" id="Oval-Copy-48" fill="#FFA200" fill-rule="evenodd" stroke="none" />
      <path d="M381.271 308.528C381.271 296.06 391.378 285.953 403.846 285.953C416.314 285.953 426.422 296.06 426.422 308.528C426.422 320.996 416.314 331.104 403.846 331.104C391.378 331.104 381.271 320.996 381.271 308.528Z" id="Oval-Copy-49" fill="#FFA200" fill-rule="evenodd" stroke="none" />
      <path d="M190.636 308.528C190.636 296.06 200.743 285.953 213.211 285.953C225.679 285.953 235.786 296.06 235.786 308.528C235.786 320.996 225.679 331.104 213.211 331.104C200.743 331.104 190.636 320.996 190.636 308.528Z" id="Oval-Copy-50" fill="#FFA200" fill-rule="evenodd" stroke="none" />
      <path d="M0 308.528C0 296.06 10.1073 285.953 22.5753 285.953C35.0432 285.953 45.1505 296.06 45.1505 308.528C45.1505 320.996 35.0432 331.104 22.5753 331.104C10.1073 331.104 0 320.996 0 308.528Z" id="Oval-Copy-51" fill="#FFA200" fill-rule="evenodd" stroke="none" />
      <path d="M95.3174 308.528C95.3174 296.06 105.425 285.953 117.893 285.953C130.361 285.953 140.468 296.06 140.468 308.528C140.468 320.996 130.361 331.104 117.893 331.104C105.425 331.104 95.3174 320.996 95.3174 308.528Z" id="Oval-Copy-52" fill="#FFA200" fill-rule="evenodd" stroke="none" />
      <path d="M285.953 403.846C285.953 391.378 296.06 381.271 308.528 381.271C320.996 381.271 331.104 391.378 331.104 403.846C331.104 416.314 320.996 426.422 308.528 426.422C296.06 426.422 285.953 416.314 285.953 403.846Z" id="Oval-Copy-53" fill="#FFA200" fill-rule="evenodd" stroke="none" />
      <path d="M381.271 403.846C381.271 391.378 391.378 381.271 403.846 381.271C416.314 381.271 426.422 391.378 426.422 403.846C426.422 416.314 416.314 426.422 403.846 426.422C391.378 426.422 381.271 416.314 381.271 403.846Z" id="Oval-Copy-54" fill="#FFA200" fill-rule="evenodd" stroke="none" />
      <path d="M190.636 403.846C190.636 391.378 200.743 381.271 213.211 381.271C225.679 381.271 235.786 391.378 235.786 403.846C235.786 416.314 225.679 426.422 213.211 426.422C200.743 426.422 190.636 416.314 190.636 403.846Z" id="Oval-Copy-55" fill="#FFA200" fill-rule="evenodd" stroke="none" />
      <path d="M0 403.846C0 391.378 10.1073 381.271 22.5753 381.271C35.0432 381.271 45.1505 391.378 45.1505 403.846C45.1505 416.314 35.0432 426.422 22.5753 426.422C10.1073 426.422 0 416.314 0 403.846Z" id="Oval-Copy-56" fill="#FFA200" fill-rule="evenodd" stroke="none" />
      <path d="M95.3174 403.846C95.3174 391.378 105.425 381.271 117.893 381.271C130.361 381.271 140.468 391.378 140.468 403.846C140.468 416.314 130.361 426.422 117.893 426.422C105.425 426.422 95.3174 416.314 95.3174 403.846Z" id="Oval-Copy-57" fill="#FFA200" fill-rule="evenodd" stroke="none" />
    </g>
  </g>
</svg>