<?xml version="1.0" encoding="utf-8"?>
<svg width="1727px" height="451px" viewBox="0 0 1727 451" version="1.1" xmlns:xlink="http://www.w3.org/1999/xlink" xmlns="http://www.w3.org/2000/svg">
  <defs>
    <path d="M-374 -433L-374 -433L-374 18L-2101 18L-2101 -433L-374 -433Z" id="path_1" />
    <clipPath id="clip_1">
      <use xlink:href="#path_1" clip-rule="evenodd" fill-rule="evenodd" />
    </clipPath>
  </defs>
  <g id="layered-steps-haikei (1)" clip-path="url(#clip_1)">
    <path d="M-374 -433L-374 -433L-374 18L-2101 18L-2101 -433L-374 -433Z" id="layered-steps-haikei-(1)" fill="none" stroke="none" />
    <path d="M0 0L1727 0L1727 451L0 451L0 0Z" id="Rectangle" fill="#000000" fill-rule="evenodd" stroke="none" />
    <path d="M0 121.712L172.7 121.712L172.7 89.0548L345.4 89.0548L345.4 67.2837L518.1 67.2837L518.1 132.597L690.8 132.597L690.8 110.826L863.5 110.826L863.5 227.846L1036.2 227.846L1036.2 151.647L1208.9 151.647L1208.9 274.11L1381.6 274.11L1381.6 238.731L1554.3 238.731L1554.3 271.388L1727 271.388L1727 118.99L1727 453.722L1727 453.722L1554.3 453.722L1554.3 453.722L1381.6 453.722L1381.6 453.722L1208.9 453.722L1208.9 453.722L1036.2 453.722L1036.2 453.722L863.5 453.722L863.5 453.722L690.8 453.722L690.8 453.722L518.1 453.722L518.1 453.722L345.4 453.722L345.4 453.722L172.7 453.722L172.7 453.722L0 453.722L0 121.712Z" id="Shape" fill="#942800" stroke="none" />
    <path d="M0 263.224L172.7 263.224L172.7 219.682L345.4 219.682L345.4 132.597L518.1 132.597L518.1 284.995L690.8 284.995L690.8 230.567L863.5 230.567L863.5 304.045L1036.2 304.045L1036.2 192.468L1208.9 192.468L1208.9 222.403L1381.6 222.403L1381.6 249.617L1554.3 249.617L1554.3 140.761L1727 140.761L1727 236.01L1727 453.722L1727 453.722L1554.3 453.722L1554.3 453.722L1381.6 453.722L1381.6 453.722L1208.9 453.722L1208.9 453.722L1036.2 453.722L1036.2 453.722L863.5 453.722L863.5 453.722L690.8 453.722L690.8 453.722L518.1 453.722L518.1 453.722L345.4 453.722L345.4 453.722L172.7 453.722L172.7 453.722L0 453.722L0 263.224Z" id="Shape" fill="#B44800" stroke="none" />
    <path d="M0 274.109L172.7 274.109L172.7 244.174L345.4 244.174L345.4 222.403L518.1 222.403L518.1 320.373L690.8 320.373L690.8 208.796L863.5 208.796L863.5 260.502L1036.2 260.502L1036.2 312.209L1208.9 312.209L1208.9 295.88L1381.6 295.88L1381.6 358.473L1554.3 358.473L1554.3 325.816L1727 325.816L1727 208.796L1727 453.721L1727 453.721L1554.3 453.721L1554.3 453.721L1381.6 453.721L1381.6 453.721L1208.9 453.721L1208.9 453.721L1036.2 453.721L1036.2 453.721L863.5 453.721L863.5 453.721L690.8 453.721L690.8 453.721L518.1 453.721L518.1 453.721L345.4 453.721L345.4 453.721L172.7 453.721L172.7 453.721L0 453.721L0 274.109Z" id="Shape" fill="#D26800" stroke="none" />
    <path d="M0 355.751L172.7 355.751L172.7 391.129L345.4 391.129L345.4 358.473L518.1 358.473L518.1 372.08L690.8 372.08L690.8 366.637L863.5 366.637L863.5 350.308L1036.2 350.308L1036.2 391.129L1208.9 391.129L1208.9 358.473L1381.6 358.473L1381.6 339.423L1554.3 339.423L1554.3 388.408L1727 388.408L1727 293.159L1727 453.721L1727 453.721L1554.3 453.721L1554.3 453.721L1381.6 453.721L1381.6 453.721L1208.9 453.721L1208.9 453.721L1036.2 453.721L1036.2 453.721L863.5 453.721L863.5 453.721L690.8 453.721L690.8 453.721L518.1 453.721L518.1 453.721L345.4 453.721L345.4 453.721L172.7 453.721L172.7 453.721L0 453.721L0 355.751Z" id="Shape" fill="#EE8900" stroke="none" />
  </g>
</svg>