<?xml version="1.0" encoding="utf-8"?>
<svg width="1728px" height="288px" viewBox="0 0 1728 288" version="1.1" xmlns:xlink="http://www.w3.org/1999/xlink" xmlns="http://www.w3.org/2000/svg">
  <defs>
    <path d="M-373 -433L-373 -433L-373 -145L-2101 -145L-2101 -433L-373 -433Z" id="path_1" />
    <clipPath id="clip_1">
      <use xlink:href="#path_1" clip-rule="evenodd" fill-rule="evenodd" />
    </clipPath>
  </defs>
  <g id="MacBook Pro 16&quot;" clip-path="url(#clip_1)">
    <path d="M-373 -433L-373 -433L-373 -145L-2101 -145L-2101 -433L-373 -433Z" id="MacBook-Pro-16" fill="#000000" stroke="none" />
    <path d="M1.00024 0L95 0L95 94L1.00024 94L1.00024 0ZM1 94L94.9997 94L94.9997 188L1 188L1 94ZM94.9998 94L188.999 94L188.999 188L94.9998 188L94.9998 94ZM283 188L377 188L377 282L283 282L283 188ZM565 188L659 188L659 282L565 282L565 188ZM659 188L753 188L753 282L659 282L659 188ZM753 188L847 188L847 282L753 282L753 188ZM1036 188L1130 188L1130 282L1036 282L1036 188ZM1319 188L1413 188L1413 282L1319 282L1319 188ZM1407 188L1501 188L1501 282L1407 282L1407 188ZM1601 188L1695 188L1695 282L1601 282L1601 188ZM189 188L283 188L283 282L189 282L189 188ZM189 94L282.999 94L282.999 188L189 188L189 94ZM472 94L565.999 94L565.999 188L472 188L472 94ZM565.999 94L659.999 94L659.999 188L565.999 188L565.999 94ZM659.999 94L753.999 94L753.999 188L659.999 188L659.999 94ZM1130 94L1224 94L1224 188L1130 188L1130 94ZM1224 94L1318 94L1318 188L1224 188L1224 94ZM1318 94L1412 94L1412 188L1318 188L1318 94ZM1506 94L1600 94L1600 188L1506 188L1506 94ZM1600 94L1694 94L1694 188L1600 188L1600 94ZM173 0L266.999 0L266.999 94L173 94L173 0ZM259 0L352.999 0L352.999 94L259 94L259 0ZM344.999 0L438.999 0L438.999 94L344.999 94L344.999 0ZM516.999 0L610.998 0L610.998 94L516.999 94L516.999 0ZM602.999 0L696.998 0L696.998 94L602.999 94L602.999 0ZM688.998 0L782.998 0L782.998 94L688.998 94L688.998 0ZM774.998 0L868.998 0L868.998 94L774.998 94L774.998 0ZM946.998 0L1041 0L1041 94L946.998 94L946.998 0ZM1033 0L1127 0L1127 94L1033 94L1033 0ZM1119 0L1213 0L1213 94L1119 94L1119 0ZM1205 0L1299 0L1299 94L1205 94L1205 0ZM1377 0L1471 0L1471 94L1377 94L1377 0ZM1463 0L1557 0L1557 94L1463 94L1463 0ZM1549 0L1643 0L1643 94L1549 94L1549 0ZM1635 0L1729 0L1729 94L1635 94L1635 0Z" id="Rectangle-Union" fill="#F88700" stroke="none" />
  </g>
</svg>